<svg width="453" height="261" viewBox="0 0 453 261" fill="none" xmlns="http://www.w3.org/2000/svg">
<path d="M124.5 74.5L142.5 82.5V57.5C142.5 44.5 146 37 146 37C146 37 153.84 39.7825 162 46C172.5 54 180.5 63.5 180.5 63.5L187.5 48C187.5 48 179 40 167 34C155 28 141 27.5 141 27.5C141 27.5 132.734 39.4093 129.5 48C125.789 57.856 124.5 74.5 124.5 74.5Z" fill="url(#paint0_linear_60_6)"/>
<path d="M329 73.5L311 81.5V56.5C311 43.5 307.5 36 307.5 36C307.5 36 299.66 38.7825 291.5 45C281 53 273 62.5 273 62.5L266 47C266 47 274.5 39 286.5 33C298.5 27 312.5 26.5 312.5 26.5C312.5 26.5 320.766 38.4093 324 47C327.711 56.856 329 73.5 329 73.5Z" fill="url(#paint1_linear_60_6)"/>
<path d="M105 184.5L100 177.5C100 177.5 83.9862 179.82 74 182.5C55.8231 187.379 47.8966 197.029 29.5 201C18.1808 203.443 0 204 0 204C0 204 38.5 250.5 105 259C173.761 267.789 213.5 229 213.5 229C213.5 229 167 258 105 244.5C81.3649 239.354 49.5 217 49.5 217C49.5 217 64.7592 204.819 75.5 198.5C86.491 192.034 105 184.5 105 184.5Z" fill="url(#paint2_linear_60_6)"/>
<path d="M347.5 183.5L352.5 176.5C352.5 176.5 368.514 178.82 378.5 181.5C396.677 186.379 404.603 196.029 423 200C434.319 202.443 452.5 203 452.5 203C452.5 203 414 249.5 347.5 258C278.739 266.789 239 228 239 228C239 228 285.5 257 347.5 243.5C371.135 238.354 403 216 403 216C403 216 387.741 203.819 377 197.5C366.009 191.034 347.5 183.5 347.5 183.5Z" fill="url(#paint3_linear_60_6)"/>
<path d="M45.8222 190.301L64.1024 182.964L46.1701 165.544C36.8452 156.486 33.9042 148.75 33.9042 148.75C33.9042 148.75 41.3625 145.065 51.5082 143.544C64.5627 141.587 76.9511 142.468 76.9511 142.468L70.7104 126.647C70.7104 126.647 59.0495 127.17 46.3845 131.596C33.7195 136.023 23.6061 145.717 23.6061 145.717C23.6061 145.717 26.3894 159.944 30.2978 168.25C34.7818 177.779 45.8222 190.301 45.8222 190.301Z" fill="url(#paint4_linear_60_6)"/>
<path d="M407.678 189.301L389.398 181.964C389.398 181.964 397.6 175.603 408.001 165.5C417.326 156.442 419.596 147.75 419.596 147.75C419.596 147.75 412.138 144.065 401.992 142.544C388.937 140.587 376.549 141.468 376.549 141.468L382.79 125.647C382.79 125.647 394.45 126.17 407.115 130.596C419.78 135.023 429.894 144.717 429.894 144.717C429.894 144.717 427.111 158.944 423.202 167.25C418.718 176.779 407.678 189.301 407.678 189.301Z" fill="url(#paint5_linear_60_6)"/>
<path d="M98.5 170C149.5 229 207 223 207 223C207 223 157.594 220.5 114 158.5C91.5 126.5 89 91.5 89 91.5C89 91.5 111.801 95.5893 125.5 101C146.31 109.219 174 131.5 174 131.5V107.5C174 107.5 153.5 90.5 125.5 79C97.5 67.5 65 67.5 65 67.5C65 67.5 67.5 134.137 98.5 170Z" fill="url(#paint6_linear_60_6)"/>
<path d="M355.5 168C304.5 227 247 221 247 221C247 221 296.406 218.5 340 156.5C362.5 124.5 365 89.5 365 89.5C365 89.5 342.199 93.5893 328.5 99C307.69 107.219 280 129.5 280 129.5V105.5C280 105.5 300.5 88.5 328.5 77C356.5 65.5 389 65.5 389 65.5C389 65.5 386.5 132.137 355.5 168Z" fill="url(#paint7_linear_60_6)"/>
<path d="M177.5 109.5C177.5 171.073 217.5 211 217.5 211C217.5 211 186.195 164 194.5 109.5C201.662 62.5 226.5 33.5 226.5 33.5C226.5 33.5 254.716 69.5714 258 117C262.5 182 233.5 212.5 233.5 212.5C233.5 212.5 273 183.5 275.5 112.5C277.666 51 227 0 227 0C227 0 177.5 44.5 177.5 109.5Z" fill="url(#paint8_linear_60_6)"/>
<defs>
<linearGradient id="paint0_linear_60_6" x1="156" y1="27.5" x2="156" y2="82.5" gradientUnits="userSpaceOnUse">
<stop stop-color="#EB487F"/>
<stop offset="1" stop-color="#300B15"/>
</linearGradient>
<linearGradient id="paint1_linear_60_6" x1="297.5" y1="26.5" x2="297.5" y2="81.5" gradientUnits="userSpaceOnUse">
<stop stop-color="#EB487F"/>
<stop offset="1" stop-color="#300B15"/>
</linearGradient>
<linearGradient id="paint2_linear_60_6" x1="106.75" y1="177.5" x2="106.75" y2="260.296" gradientUnits="userSpaceOnUse">
<stop stop-color="#EB487F"/>
<stop offset="1" stop-color="#300B15"/>
</linearGradient>
<linearGradient id="paint3_linear_60_6" x1="345.75" y1="176.5" x2="345.75" y2="259.296" gradientUnits="userSpaceOnUse">
<stop stop-color="#EB487F"/>
<stop offset="1" stop-color="#300B15"/>
</linearGradient>
<linearGradient id="paint4_linear_60_6" x1="34.0576" y1="134.958" x2="73.5088" y2="173.28" gradientUnits="userSpaceOnUse">
<stop stop-color="#EB487F"/>
<stop offset="1" stop-color="#300B15"/>
</linearGradient>
<linearGradient id="paint5_linear_60_6" x1="419.442" y1="133.958" x2="379.991" y2="172.28" gradientUnits="userSpaceOnUse">
<stop stop-color="#EB487F"/>
<stop offset="1" stop-color="#300B15"/>
</linearGradient>
<linearGradient id="paint6_linear_60_6" x1="136" y1="67.5" x2="136" y2="223.171" gradientUnits="userSpaceOnUse">
<stop stop-color="#EB487F"/>
<stop offset="1" stop-color="#300B15"/>
</linearGradient>
<linearGradient id="paint7_linear_60_6" x1="318" y1="65.5" x2="318" y2="221.171" gradientUnits="userSpaceOnUse">
<stop stop-color="#EB487F"/>
<stop offset="1" stop-color="#300B15"/>
</linearGradient>
<linearGradient id="paint8_linear_60_6" x1="226.534" y1="0" x2="226.534" y2="212.5" gradientUnits="userSpaceOnUse">
<stop stop-color="#EB487F"/>
<stop offset="1" stop-color="#300B15"/>
</linearGradient>
</defs>
</svg>
