<svg width="635" height="428" viewBox="0 0 635 428" fill="none" xmlns="http://www.w3.org/2000/svg">
<path d="M510.73 142.021C518.452 128.17 542.307 125.314 542.307 125.314C542.307 125.314 528.197 133.429 522.525 144.456C511.335 166.213 531.727 210.453 531.727 210.453C531.727 210.453 498.211 164.474 510.73 142.021Z" fill="#A1E2D1"/>
<path d="M43.54 259.4C35.8867 259.4 28.56 258.327 21.56 256.18C14.56 253.94 9.00667 251.093 4.9 247.64L11.2 233.5C15.12 236.58 19.9733 239.147 25.76 241.2C31.5467 243.253 37.4733 244.28 43.54 244.28C48.6733 244.28 52.8267 243.72 56 242.6C59.1733 241.48 61.5067 239.987 63 238.12C64.4933 236.16 65.24 233.967 65.24 231.54C65.24 228.553 64.1667 226.173 62.02 224.4C59.8733 222.533 57.0733 221.087 53.62 220.06C50.26 218.94 46.48 217.913 42.28 216.98C38.1733 216.047 34.02 214.973 29.82 213.76C25.7133 212.453 21.9333 210.82 18.48 208.86C15.12 206.807 12.3667 204.1 10.22 200.74C8.07333 197.38 7 193.087 7 187.86C7 182.54 8.4 177.687 11.2 173.3C14.0933 168.82 18.4333 165.273 24.22 162.66C30.1 159.953 37.52 158.6 46.48 158.6C52.36 158.6 58.1933 159.347 63.98 160.84C69.7667 162.333 74.8067 164.48 79.1 167.28L73.36 181.42C68.9733 178.807 64.4467 176.893 59.78 175.68C55.1133 174.373 50.6333 173.72 46.34 173.72C41.3 173.72 37.1933 174.327 34.02 175.54C30.94 176.753 28.6533 178.34 27.16 180.3C25.76 182.26 25.06 184.5 25.06 187.02C25.06 190.007 26.0867 192.433 28.14 194.3C30.2867 196.073 33.04 197.473 36.4 198.5C39.8533 199.527 43.68 200.553 47.88 201.58C52.08 202.513 56.2333 203.587 60.34 204.8C64.54 206.013 68.32 207.6 71.68 209.56C75.1333 211.52 77.8867 214.18 79.94 217.54C82.0867 220.9 83.16 225.147 83.16 230.28C83.16 235.507 81.7133 240.36 78.82 244.84C76.02 249.227 71.68 252.773 65.8 255.48C59.92 258.093 52.5 259.4 43.54 259.4ZM87.3469 258L131.447 160H149.367L193.607 258H174.567L136.627 169.66H143.907L106.107 258H87.3469ZM107.647 235.32L112.547 221.04H165.467L170.367 235.32H107.647ZM206.07 258V160H221.05L282.51 235.46H275.09V160H293.15V258H278.17L216.71 182.54H224.13V258H206.07ZM349.79 259.4C342.137 259.4 334.81 258.327 327.81 256.18C320.81 253.94 315.257 251.093 311.15 247.64L317.45 233.5C321.37 236.58 326.223 239.147 332.01 241.2C337.797 243.253 343.723 244.28 349.79 244.28C354.923 244.28 359.077 243.72 362.25 242.6C365.423 241.48 367.757 239.987 369.25 238.12C370.743 236.16 371.49 233.967 371.49 231.54C371.49 228.553 370.417 226.173 368.27 224.4C366.123 222.533 363.323 221.087 359.87 220.06C356.51 218.94 352.73 217.913 348.53 216.98C344.423 216.047 340.27 214.973 336.07 213.76C331.963 212.453 328.183 210.82 324.73 208.86C321.37 206.807 318.617 204.1 316.47 200.74C314.323 197.38 313.25 193.087 313.25 187.86C313.25 182.54 314.65 177.687 317.45 173.3C320.343 168.82 324.683 165.273 330.47 162.66C336.35 159.953 343.77 158.6 352.73 158.6C358.61 158.6 364.443 159.347 370.23 160.84C376.017 162.333 381.057 164.48 385.35 167.28L379.61 181.42C375.223 178.807 370.697 176.893 366.03 175.68C361.363 174.373 356.883 173.72 352.59 173.72C347.55 173.72 343.443 174.327 340.27 175.54C337.19 176.753 334.903 178.34 333.41 180.3C332.01 182.26 331.31 184.5 331.31 187.02C331.31 190.007 332.337 192.433 334.39 194.3C336.537 196.073 339.29 197.473 342.65 198.5C346.103 199.527 349.93 200.553 354.13 201.58C358.33 202.513 362.483 203.587 366.59 204.8C370.79 206.013 374.57 207.6 377.93 209.56C381.383 211.52 384.137 214.18 386.19 217.54C388.337 220.9 389.41 225.147 389.41 230.28C389.41 235.507 387.963 240.36 385.07 244.84C382.27 249.227 377.93 252.773 372.05 255.48C366.17 258.093 358.75 259.4 349.79 259.4ZM476.337 160H494.537V258H476.337V160ZM425.657 258H407.457V160H425.657V258ZM477.737 216H424.117V200.46H477.737V216Z" fill="url(#paint0_linear_41_3)"/>
<path d="M521.02 283H530.12V332H521.02V283ZM495.68 332H486.58V283H495.68V332ZM521.72 311H494.91V303.23H521.72V311ZM539.75 339V335.08L552.28 324.16C553.82 322.76 554.823 321.663 555.29 320.87C555.803 320.03 556.06 319.237 556.06 318.49C556.06 317.417 555.57 316.53 554.59 315.83C553.657 315.083 552.14 314.71 550.04 314.71C548.453 314.71 547.03 314.967 545.77 315.48C544.51 315.993 543.507 316.763 542.76 317.79L538.35 314.64C539.517 313.053 541.127 311.793 543.18 310.86C545.233 309.927 547.683 309.46 550.53 309.46C554.31 309.46 557.227 310.277 559.28 311.91C561.333 313.543 562.36 315.597 562.36 318.07C562.36 319.47 562.01 320.823 561.31 322.13C560.657 323.437 559.21 325.07 556.97 327.03L546.4 336.27L544.93 334.03H563.55V339H539.75ZM596.288 332.7C592.461 332.7 588.938 332.07 585.718 330.81C582.498 329.55 579.698 327.8 577.318 325.56C574.938 323.273 573.095 320.613 571.788 317.58C570.481 314.5 569.828 311.14 569.828 307.5C569.828 303.86 570.481 300.523 571.788 297.49C573.095 294.41 574.938 291.75 577.318 289.51C579.698 287.223 582.498 285.45 585.718 284.19C588.938 282.93 592.438 282.3 596.218 282.3C600.045 282.3 603.545 282.93 606.718 284.19C609.938 285.45 612.738 287.223 615.118 289.51C617.498 291.75 619.341 294.41 620.648 297.49C621.955 300.523 622.608 303.86 622.608 307.5C622.608 311.14 621.955 314.5 620.648 317.58C619.341 320.66 617.498 323.32 615.118 325.56C612.738 327.8 609.938 329.55 606.718 330.81C603.545 332.07 600.068 332.7 596.288 332.7ZM596.218 324.72C598.691 324.72 600.978 324.3 603.078 323.46C605.178 322.62 606.998 321.43 608.538 319.89C610.078 318.303 611.268 316.483 612.108 314.43C612.995 312.33 613.438 310.02 613.438 307.5C613.438 304.98 612.995 302.693 612.108 300.64C611.268 298.54 610.078 296.72 608.538 295.18C606.998 293.593 605.178 292.38 603.078 291.54C600.978 290.7 598.691 290.28 596.218 290.28C593.745 290.28 591.458 290.7 589.358 291.54C587.305 292.38 585.485 293.593 583.898 295.18C582.358 296.72 581.145 298.54 580.258 300.64C579.418 302.693 578.998 304.98 578.998 307.5C578.998 309.973 579.418 312.26 580.258 314.36C581.145 316.46 582.358 318.303 583.898 319.89C585.438 321.43 587.258 322.62 589.358 323.46C591.458 324.3 593.745 324.72 596.218 324.72Z" fill="url(#paint1_linear_41_3)"/>
<path d="M525.649 197.288C519.342 181.118 518.461 161.031 518.461 161.031C518.461 161.031 519.333 172.421 532.489 191.168C545.645 209.914 551.842 228.929 547.165 242.654C541.027 260.663 510.74 258.237 510.74 258.237C510.74 258.237 528.767 251.317 533.154 240.52C537.625 229.515 537.056 226.531 525.649 197.288Z" fill="#1C4E79"/>
<path d="M521.313 143.515C527.233 132.917 542.307 125.314 542.307 125.314C542.307 125.314 533.417 132.23 530.488 142.944C522.863 170.833 561.554 193.654 556.836 222.18C555.438 230.634 549.455 240.425 545.937 245.609C544.653 247.997 543.326 249.269 543.326 249.269C543.326 249.269 544.394 247.882 545.937 245.609C546.918 243.784 547.873 241.307 548.19 238.249C551.694 204.453 504.743 173.178 521.313 143.515Z" fill="#3380A9"/>
<path d="M546.501 94.728C544.501 75.728 525.761 66.0193 512.001 73.728C497.157 82.0432 505.001 112.728 519.001 116.728C533 120.728 548.5 113.728 546.501 94.728Z" fill="#1C4E79"/>
<path d="M528.001 97.2281C521.414 102.938 508.951 104.728 506.951 103.728C504.951 102.728 500.801 82.7322 509.001 75.7281C518.951 67.228 534.501 71.728 537.001 77.2281C539.501 82.7281 534.472 91.6182 528.001 97.2281Z" fill="#3380A9"/>
<path d="M517 83.728C519.5 81.228 522 76.228 520 74.228C518 72.228 513.794 73.9576 511 76.228C507.645 78.9537 505.5 84.728 507.5 86.728C509.5 88.7281 514.5 86.2281 517 83.728Z" fill="#A1E2D1"/>
<path d="M528.27 237.8C538.54 217.527 507.13 183.582 507.13 183.582C507.13 183.582 532.253 216.927 524.161 237.456C521.26 244.817 512.665 254.139 512.665 254.139C512.665 254.139 524.282 245.671 528.27 237.8Z" fill="#3380A9"/>
<path d="M537.317 138.404C540.788 133.103 550.191 128.529 550.191 128.529C550.191 128.529 542.976 134.695 540.469 140.007C534.679 152.273 547.355 174.048 547.355 174.048C547.355 174.048 529.395 150.503 537.317 138.404Z" fill="#A1E2D1"/>
<path d="M110.5 420C108.167 420 105.733 419.333 103.2 418C100.667 416.733 98.1333 415.033 95.6 412.9C93.0667 410.7 90.6333 408.333 88.3 405.8C86.0333 403.2 83.9667 400.6 82.1 398C80.2333 395.333 78.6667 392.9 77.4 390.7C77.2 391.567 76.9333 392.933 76.6 394.8C76.2667 396.667 75.9 398.7 75.5 400.9C75.1667 403.1 74.8333 405.167 74.5 407.1C74.2333 409.033 74 410.5 73.8 411.5C73.7333 411.967 73.7 412.433 73.7 412.9C73.7667 413.3 73.7333 413.733 73.6 414.2C73.4667 415 72.9 415.833 71.9 416.7C70.9 417.633 69.9333 418.1 69 418.1C68.3333 418.1 68 417.8 68 417.2C68 417 68.1667 416.1 68.5 414.5C68.9 412.9 69.2333 411.367 69.5 409.9C69.5667 409.7 69.7667 408.767 70.1 407.1C70.4333 405.367 70.8333 403.233 71.3 400.7C71.8333 398.1 72.3667 395.4 72.9 392.6C73.5 389.8 74.0333 387.167 74.5 384.7C75.0333 382.167 75.4667 380.133 75.8 378.6C76.1333 377 76.3 376.2 76.3 376.2C76.8333 373.733 77.3 371.267 77.7 368.8C78.1667 366.333 78.6333 363.867 79.1 361.4C79.1667 361.2 79.2 360.933 79.2 360.6C79.2 360.067 79.1333 359.567 79 359.1C78.9333 358.567 78.9 358 78.9 357.4C78.9 356.8 79.2333 356.367 79.9 356.1C80.6333 355.767 81.4333 355.567 82.3 355.5C83.1667 355.433 83.8 355.4 84.2 355.4C84.4667 355.4 84.7333 355.5 85 355.7C85.2667 355.833 85.4 356 85.4 356.2C85.4 356.933 85.2 357.8 84.8 358.8C84.5333 359.667 84.1667 361.033 83.7 362.9C83.2333 364.767 82.7333 366.8 82.2 369C81.3333 372.6 80.5333 375.9 79.8 378.9C79.1333 381.833 78.5333 384.667 78 387.4C78.9333 386.6 80.4333 385.233 82.5 383.3C84.5667 381.367 87 379.1 89.8 376.5C92.6 373.9 95.4667 371.233 98.4 368.5C101.4 365.767 104.267 363.233 107 360.9C109.733 358.567 112.067 356.667 114 355.2C116 353.733 117.333 353 118 353C118.4 353 118.6 353.233 118.6 353.7C118.6 354.567 118.233 355.433 117.5 356.3C116.833 357.1 116.167 357.733 115.5 358.2C114.967 358.6 113.8 359.5 112 360.9C110.2 362.3 108.167 363.933 105.9 365.8C103.633 367.667 101.467 369.533 99.4 371.4C95.6667 374.733 92.2 377.967 89 381.1C85.8667 384.167 83.2333 386.8 81.1 389C82.7667 391.467 84.5 394 86.3 396.6C88.1667 399.2 90.2333 401.667 92.5 404C93.3 404.867 94.4333 406.1 95.9 407.7C97.4333 409.233 99.0667 410.8 100.8 412.4C102.6 414 104.333 415.333 106 416.4C107.733 417.533 109.233 418.1 110.5 418.1C111.033 418.1 111.567 418 112.1 417.8C112.7 417.6 113.3 417.5 113.9 417.5C114.033 417.5 114.2 417.5 114.4 417.5C114.667 417.567 114.8 417.667 114.8 417.8C114.8 418.2 114.5 418.567 113.9 418.9C113.3 419.233 112.667 419.5 112 419.7C111.333 419.9 110.833 420 110.5 420ZM128.746 376.4C128.479 376.4 128.213 376.133 127.946 375.6C127.746 375.067 127.579 374.5 127.446 373.9C127.379 373.233 127.346 372.767 127.346 372.5C127.346 372.367 127.346 372.2 127.346 372C127.413 371.733 127.546 371.567 127.746 371.5C128.879 371.367 129.946 371.167 130.946 370.9C132.013 370.633 133.079 370.333 134.146 370C134.279 369.933 134.513 369.9 134.846 369.9C135.379 369.9 135.646 370.2 135.646 370.8C135.646 372.133 135.013 373.233 133.746 374.1C133.013 374.567 132.213 375.067 131.346 375.6C130.546 376.133 129.679 376.4 128.746 376.4ZM118.946 416.7C117.946 416.7 117.446 416.167 117.446 415.1C117.446 413.967 117.646 412.5 118.046 410.7C118.446 408.833 118.913 406.967 119.446 405.1C119.979 403.233 120.379 401.767 120.646 400.7C120.713 400.433 120.913 399.733 121.246 398.6C121.579 397.4 121.946 396.1 122.346 394.7C122.746 393.3 123.079 392.067 123.346 391C123.679 389.867 123.846 389.2 123.846 389C123.846 388.667 123.646 388.367 123.246 388.1C122.913 387.833 122.746 387.533 122.746 387.2C122.746 387 122.779 386.8 122.846 386.6C122.913 386.4 122.979 386.233 123.046 386.1C123.246 385.767 123.746 385.333 124.546 384.8C125.346 384.267 126.179 383.8 127.046 383.4C127.979 382.933 128.613 382.7 128.946 382.7C129.146 382.7 129.279 382.733 129.346 382.8C129.413 382.933 129.446 383.167 129.446 383.5C129.446 384.1 129.279 385 128.946 386.2C128.679 387.4 128.313 388.733 127.846 390.2C127.446 391.6 127.046 392.9 126.646 394.1C126.246 395.3 125.946 396.2 125.746 396.8C125.413 397.8 124.946 399.233 124.346 401.1C123.746 402.967 123.213 404.833 122.746 406.7C122.279 408.567 122.046 410.033 122.046 411.1C122.046 411.233 122.079 411.533 122.146 412C122.213 412.4 122.379 412.6 122.646 412.6C122.979 412.6 123.579 412.333 124.446 411.8C125.379 411.2 126.346 410.633 127.346 410.1C128.346 409.567 129.113 409.3 129.646 409.3C129.913 409.3 130.079 409.367 130.146 409.5C130.146 409.767 129.713 410.233 128.846 410.9C127.979 411.5 127.046 412.133 126.046 412.8C125.113 413.4 124.479 413.867 124.146 414.2C123.479 414.8 122.679 415.367 121.746 415.9C120.813 416.433 119.879 416.7 118.946 416.7ZM137.305 415.9C136.705 415.9 136.172 415.733 135.705 415.4C135.305 415.067 135.105 414.567 135.105 413.9C135.105 412.967 135.172 411.8 135.305 410.4C135.439 409 135.572 407.8 135.705 406.8C136.239 403.6 136.839 400.4 137.505 397.2C138.239 393.933 139.039 390.733 139.905 387.6C140.705 384.533 141.639 381.3 142.705 377.9C143.772 374.433 145.072 371.067 146.605 367.8C148.139 364.533 150.005 361.6 152.205 359C154.472 356.333 157.172 354.3 160.305 352.9C161.105 352.567 161.939 352.3 162.805 352.1C163.672 351.833 164.539 351.7 165.405 351.7C166.205 351.7 167.139 351.867 168.205 352.2C169.339 352.533 170.305 353.033 171.105 353.7C171.905 354.3 172.305 355.1 172.305 356.1C172.305 356.5 172.205 356.8 172.005 357C171.872 357.2 171.339 357.633 170.405 358.3C169.539 358.9 169.039 359.233 168.905 359.3C168.772 359.167 168.705 359.067 168.705 359C168.705 358.8 168.805 358.6 169.005 358.4C169.205 358.2 169.305 357.967 169.305 357.7C169.305 357.033 168.939 356.433 168.205 355.9C167.472 355.3 166.639 354.833 165.705 354.5C164.772 354.1 164.005 353.9 163.405 353.9C161.205 353.9 159.172 354.833 157.305 356.7C155.505 358.567 153.872 360.967 152.405 363.9C150.939 366.767 149.639 369.833 148.505 373.1C147.372 376.3 146.405 379.333 145.605 382.2C144.805 385.067 144.172 387.367 143.705 389.1C143.172 391.033 142.605 393.2 142.005 395.6C141.405 398 140.872 400.433 140.405 402.9C140.005 405.3 139.805 407.533 139.805 409.6C139.805 410.2 139.905 410.833 140.105 411.5C140.372 412.1 140.872 412.4 141.605 412.4C142.605 412.4 143.639 412.067 144.705 411.4C145.839 410.733 146.905 409.967 147.905 409.1C148.972 408.167 149.872 407.367 150.605 406.7C151.405 406.033 151.939 405.7 152.205 405.7C152.339 405.7 152.405 405.767 152.405 405.9C152.405 406.367 152.272 406.833 152.005 407.3C151.739 407.767 151.439 408.167 151.105 408.5C150.239 409.367 149.005 410.4 147.405 411.6C145.805 412.733 144.105 413.733 142.305 414.6C140.505 415.467 138.839 415.9 137.305 415.9ZM154.688 415.9C154.088 415.9 153.555 415.733 153.088 415.4C152.688 415.067 152.488 414.567 152.488 413.9C152.488 412.967 152.555 411.8 152.688 410.4C152.822 409 152.955 407.8 153.088 406.8C153.622 403.6 154.222 400.4 154.888 397.2C155.622 393.933 156.422 390.733 157.288 387.6C158.088 384.533 159.022 381.3 160.088 377.9C161.155 374.433 162.455 371.067 163.988 367.8C165.522 364.533 167.388 361.6 169.588 359C171.855 356.333 174.555 354.3 177.688 352.9C178.488 352.567 179.322 352.3 180.188 352.1C181.055 351.833 181.922 351.7 182.788 351.7C183.588 351.7 184.522 351.867 185.588 352.2C186.722 352.533 187.688 353.033 188.488 353.7C189.288 354.3 189.688 355.1 189.688 356.1C189.688 356.5 189.588 356.8 189.388 357C189.255 357.2 188.722 357.633 187.788 358.3C186.922 358.9 186.422 359.233 186.288 359.3C186.155 359.167 186.088 359.067 186.088 359C186.088 358.8 186.188 358.6 186.388 358.4C186.588 358.2 186.688 357.967 186.688 357.7C186.688 357.033 186.322 356.433 185.588 355.9C184.855 355.3 184.022 354.833 183.088 354.5C182.155 354.1 181.388 353.9 180.788 353.9C178.588 353.9 176.555 354.833 174.688 356.7C172.888 358.567 171.255 360.967 169.788 363.9C168.322 366.767 167.022 369.833 165.888 373.1C164.755 376.3 163.788 379.333 162.988 382.2C162.188 385.067 161.555 387.367 161.088 389.1C160.555 391.033 159.988 393.2 159.388 395.6C158.788 398 158.255 400.433 157.788 402.9C157.388 405.3 157.188 407.533 157.188 409.6C157.188 410.2 157.288 410.833 157.488 411.5C157.755 412.1 158.255 412.4 158.988 412.4C159.988 412.4 161.022 412.067 162.088 411.4C163.222 410.733 164.288 409.967 165.288 409.1C166.355 408.167 167.255 407.367 167.988 406.7C168.788 406.033 169.322 405.7 169.588 405.7C169.722 405.7 169.788 405.767 169.788 405.9C169.788 406.367 169.655 406.833 169.388 407.3C169.122 407.767 168.822 408.167 168.488 408.5C167.622 409.367 166.388 410.4 164.788 411.6C163.188 412.733 161.488 413.733 159.688 414.6C157.888 415.467 156.222 415.9 154.688 415.9ZM208.871 418.2C208.404 418.2 208.171 417.967 208.171 417.5V417.2C208.638 415.067 209.104 412.933 209.571 410.8C210.038 408.6 210.504 406.467 210.971 404.4C211.304 402.867 211.604 401.367 211.871 399.9C212.138 398.367 212.404 396.867 212.671 395.4C212.804 394.867 212.938 394.267 213.071 393.6C213.204 392.933 213.304 392.267 213.371 391.6C213.438 391.4 213.471 391.2 213.471 391C213.471 390.733 213.471 390.5 213.471 390.3C213.471 389.633 213.371 388.9 213.171 388.1C213.038 387.233 212.771 386.3 212.371 385.3C211.571 383.3 210.638 381.1 209.571 378.7C208.504 376.3 207.438 373.9 206.371 371.5C205.304 369.1 204.271 366.867 203.271 364.8C202.338 362.733 201.571 361.067 200.971 359.8C200.704 359.2 200.404 358.7 200.071 358.3C199.804 357.833 199.471 357.6 199.071 357.6C198.604 357.6 198.371 357.4 198.371 357C198.371 356.6 198.571 356.2 198.971 355.8C199.571 355.4 200.171 355.067 200.771 354.8C201.438 354.533 202.038 354.4 202.571 354.4C203.904 354.4 204.838 355.133 205.371 356.6C205.704 357.333 206.304 358.767 207.171 360.9C208.104 363.033 209.138 365.5 210.271 368.3C211.471 371.033 212.638 373.667 213.771 376.2C214.438 377.8 215.038 379.167 215.571 380.3C216.104 381.433 216.638 382.633 217.171 383.9C217.371 384.433 217.571 384.7 217.771 384.7C218.038 384.7 218.471 384.333 219.071 383.6C220.604 381.933 222.338 380 224.271 377.8C226.271 375.6 228.271 373.367 230.271 371.1C232.271 368.833 234.138 366.733 235.871 364.8C237.604 362.867 239.038 361.333 240.171 360.2C241.771 358.6 243.204 357.367 244.471 356.5C245.804 355.633 247.004 355.067 248.071 354.8C248.338 354.667 248.671 354.6 249.071 354.6C250.071 354.6 250.571 354.933 250.571 355.6C250.571 355.933 250.238 356.367 249.571 356.9C249.104 357.3 248.571 357.733 247.971 358.2C247.371 358.667 246.904 359.067 246.571 359.4C245.971 359.8 244.704 360.9 242.771 362.7C240.838 364.5 238.504 366.8 235.771 369.6C233.304 372.133 230.738 374.867 228.071 377.8C225.404 380.733 222.871 383.6 220.471 386.4C220.004 387 219.538 387.8 219.071 388.8C218.604 389.733 218.171 391 217.771 392.6C217.371 394.533 216.938 396.733 216.471 399.2C216.071 401.6 215.771 403.4 215.571 404.6L214.171 414.2C214.038 415.067 213.604 415.8 212.871 416.4C212.138 417 211.371 417.433 210.571 417.7C209.838 418.033 209.271 418.2 208.871 418.2ZM240.562 417C238.095 417 236.428 416.3 235.562 414.9C234.695 413.433 234.262 411.567 234.262 409.3C234.262 406.9 234.628 404.6 235.362 402.4C236.095 400.2 236.895 398 237.762 395.8C237.295 395.467 236.862 395.033 236.462 394.5C236.128 393.967 235.962 393.2 235.962 392.2C235.962 391.067 236.628 389.633 237.962 387.9C239.295 386.1 240.795 384.533 242.462 383.2C243.195 382.6 244.162 381.967 245.362 381.3C246.562 380.567 247.795 379.967 249.062 379.5C250.328 378.967 251.362 378.7 252.162 378.7C254.962 378.7 256.828 379.833 257.762 382.1C258.695 384.367 259.028 387.067 258.762 390.2C259.028 390.067 259.495 389.867 260.162 389.6C260.895 389.333 261.595 389.1 262.262 388.9C262.928 388.633 263.328 388.5 263.462 388.5C263.795 388.5 264.128 388.667 264.462 389C264.795 389.333 264.962 389.667 264.962 390C264.962 390.2 264.862 390.367 264.662 390.5L258.362 392.9C257.962 394.967 257.295 397.367 256.362 400.1C255.495 402.833 254.295 405.5 252.762 408.1C251.295 410.633 249.528 412.767 247.462 414.5C245.462 416.167 243.162 417 240.562 417ZM245.362 393.5C247.028 393.5 248.628 393.333 250.162 393C251.695 392.6 253.362 392.1 255.162 391.5C255.228 391.167 255.262 390.8 255.262 390.4C255.328 390 255.362 389.633 255.362 389.3C255.362 388.5 255.262 387.6 255.062 386.6C254.928 385.6 254.595 384.733 254.062 384C253.595 383.2 252.862 382.8 251.862 382.8C250.728 382.8 249.628 383.233 248.562 384.1C247.495 384.967 246.495 386 245.562 387.2C244.695 388.4 243.928 389.567 243.262 390.7C242.662 391.833 242.228 392.667 241.962 393.2C243.162 393.4 244.295 393.5 245.362 393.5ZM241.462 414.3C243.328 414.3 244.962 413.7 246.362 412.5C247.828 411.233 249.095 409.6 250.162 407.6C251.228 405.6 252.128 403.433 252.862 401.1C253.662 398.767 254.295 396.467 254.762 394.2C252.762 394.867 250.462 395.533 247.862 396.2C245.328 396.8 242.995 396.967 240.862 396.7C240.195 398.5 239.595 400.533 239.062 402.8C238.595 405.067 238.362 407.167 238.362 409.1C238.362 410.167 238.528 411.3 238.862 412.5C239.262 413.7 240.128 414.3 241.462 414.3ZM284.53 417C283.997 417 283.464 416.8 282.93 416.4C282.464 416 282.23 415.5 282.23 414.9C282.23 412.833 282.464 410.533 282.93 408C283.464 405.467 284.064 402.933 284.73 400.4C285.397 397.8 285.964 395.467 286.43 393.4C285.897 394.4 284.997 395.833 283.73 397.7C282.464 399.567 280.997 401.6 279.33 403.8C277.664 405.933 275.93 408 274.13 410C272.397 411.933 270.73 413.533 269.13 414.8C267.597 416.067 266.297 416.7 265.23 416.7C264.697 416.7 264.297 416.5 264.03 416.1C263.83 415.7 263.73 415.267 263.73 414.8C263.73 414 263.964 412.867 264.43 411.4C264.897 409.867 265.43 408.233 266.03 406.5C266.697 404.7 267.33 403 267.93 401.4C268.597 399.8 269.064 398.467 269.33 397.4L270.93 391.8H270.73C270.53 391.8 270.297 391.733 270.03 391.6C269.83 391.467 269.73 391.267 269.73 391C269.73 390.933 269.73 390.867 269.73 390.8C269.797 390.733 269.83 390.667 269.83 390.6C270.164 389.267 270.397 387.867 270.53 386.4C270.664 384.867 271.064 383.567 271.73 382.5C272.464 381.433 273.73 380.9 275.53 380.9C276.664 380.9 277.23 381.467 277.23 382.6C277.23 383.533 276.964 385.067 276.43 387.2C275.897 389.267 275.23 391.533 274.43 394C273.697 396.467 272.964 398.8 272.23 401C271.497 403.133 270.964 404.767 270.63 405.9C270.497 406.367 270.23 407.2 269.83 408.4C269.43 409.533 269.23 410.333 269.23 410.8L269.33 411C269.397 411 269.497 410.933 269.63 410.8C272.297 409.133 274.764 406.833 277.03 403.9C279.364 400.967 281.464 397.867 283.33 394.6C285.264 391.333 286.93 388.367 288.33 385.7C288.264 385.367 288.23 385.067 288.23 384.8C288.23 384.533 288.23 384.267 288.23 384C288.23 382.533 288.83 381.533 290.03 381C291.297 380.467 292.53 380.2 293.73 380.2C294.13 380.2 294.564 380.267 295.03 380.4C295.497 380.533 295.73 380.867 295.73 381.4C295.73 381.667 295.664 381.933 295.53 382.2C295.464 382.4 295.364 382.633 295.23 382.9C294.03 385.233 292.964 387.6 292.03 390C291.164 392.4 290.33 394.867 289.53 397.4C289.197 398.533 288.764 400 288.23 401.8C287.697 403.533 287.23 405.3 286.83 407.1C286.497 408.833 286.33 410.3 286.33 411.5C286.33 411.967 286.397 412.5 286.53 413.1C286.73 413.633 287.13 413.9 287.73 413.9C288.264 413.9 288.964 413.6 289.83 413C290.697 412.333 291.597 411.567 292.53 410.7C293.53 409.833 294.397 409.1 295.13 408.5C295.93 407.833 296.464 407.5 296.73 407.5C296.93 407.5 297.03 407.667 297.03 408C297.03 408.2 296.964 408.533 296.83 409C296.697 409.4 296.43 409.767 296.03 410.1C295.297 410.767 294.264 411.667 292.93 412.8C291.597 413.867 290.164 414.833 288.63 415.7C287.164 416.567 285.797 417 284.53 417ZM297.708 417.8C297.174 417.8 296.841 417.6 296.708 417.2C296.974 416.6 297.241 416 297.508 415.4C297.774 414.8 298.008 414.167 298.208 413.5C299.408 409.967 300.474 406.4 301.408 402.8C302.408 399.2 303.374 395.6 304.308 392L305.108 388.9C305.108 388.7 304.874 388.633 304.408 388.7C303.941 388.7 303.674 388.6 303.608 388.4C304.074 387.2 304.474 386 304.808 384.8C305.208 383.533 305.641 382.3 306.108 381.1C306.308 380.567 306.941 380.067 308.008 379.6C309.074 379.133 309.874 378.9 310.408 378.9C311.341 378.9 311.808 379.333 311.808 380.2C311.808 380.667 311.574 381.633 311.108 383.1C310.708 384.5 310.174 386.167 309.508 388.1C308.908 389.967 308.241 391.9 307.508 393.9C306.841 395.833 306.208 397.633 305.608 399.3C305.074 400.9 304.674 402.133 304.408 403C305.608 400.6 307.041 398 308.708 395.2C310.374 392.4 312.208 389.733 314.208 387.2C316.208 384.667 318.341 382.667 320.608 381.2C321.341 380.733 322.008 380.5 322.608 380.5C324.008 380.5 325.041 381.233 325.708 382.7C326.374 384.1 326.708 385.367 326.708 386.5C326.708 386.9 326.608 387.533 326.408 388.4C326.208 389.2 325.908 389.967 325.508 390.7C325.174 391.367 324.741 391.7 324.208 391.7C323.808 391.7 323.541 391.4 323.408 390.8C323.274 390.133 323.141 389.4 323.008 388.6C322.874 387.733 322.641 387 322.308 386.4C321.974 385.733 321.441 385.4 320.708 385.4C319.641 385.4 318.441 386.067 317.108 387.4C315.774 388.667 314.408 390.3 313.008 392.3C311.608 394.3 310.241 396.433 308.908 398.7C307.641 400.9 306.508 402.933 305.508 404.8C304.574 406.667 303.908 408.1 303.508 409.1C303.574 409.3 303.608 409.6 303.608 410C303.608 410.733 303.441 411.6 303.108 412.6C302.841 413.533 302.541 414.367 302.208 415.1C302.208 415.5 301.908 415.9 301.308 416.3C300.774 416.7 300.141 417.033 299.408 417.3C298.674 417.633 298.108 417.8 297.708 417.8ZM360.034 417.8C359.5 417.8 359.234 417.533 359.234 417C359.234 417 359.234 416.967 359.234 416.9C359.234 416.9 359.267 416.867 359.334 416.8C359.867 415.667 360.234 414.533 360.434 413.4C360.634 412.2 360.767 410.9 360.834 409.5C360.967 408.9 361.267 408.633 361.734 408.7C361.867 407.633 362.2 405.8 362.734 403.2C363.267 400.6 363.867 397.567 364.534 394.1C365.267 390.567 366 386.9 366.734 383.1C367.534 379.3 368.267 375.7 368.934 372.3C369.6 368.833 370.134 365.867 370.534 363.4C370.934 360.933 371.134 359.3 371.134 358.5C370.8 358.3 369.934 358.167 368.534 358.1C367.134 358.033 365.534 358 363.734 358C361.734 358 359.667 358.033 357.534 358.1C355.4 358.167 353.467 358.233 351.734 358.3C350.067 358.3 348.867 358.3 348.134 358.3C347.6 358.3 347.334 358.033 347.334 357.5C347.334 356.7 347.867 356.2 348.934 356C350 355.733 350.767 355.567 351.234 355.5C352.234 355.433 353.8 355.4 355.934 355.4C358.067 355.333 360.4 355.3 362.934 355.3C365.467 355.233 367.834 355.2 370.034 355.2C372.3 355.2 374 355.2 375.134 355.2H397.534C398.067 355.2 398.334 355.4 398.334 355.8C398.334 356.4 397.967 356.9 397.234 357.3C396.567 357.633 396 357.833 395.534 357.9C395.067 357.967 394.4 358.033 393.534 358.1C392.734 358.167 391.867 358.2 390.934 358.2C389.6 358.2 388.034 358.167 386.234 358.1C384.434 358.033 382.767 358 381.234 358C380.1 358 379.1 358.033 378.234 358.1C377.434 358.167 376.867 358.3 376.534 358.5C376 360.633 375.367 363.3 374.634 366.5C373.9 369.7 373.134 373.133 372.334 376.8C371.534 380.4 370.767 383.967 370.034 387.5C369.367 391.033 368.734 394.233 368.134 397.1C367.6 399.967 367.167 402.2 366.834 403.8C366.367 406.333 366 408.767 365.734 411.1C365.534 413.367 365.434 414.8 365.434 415.4C365.434 415.667 365.1 415.933 364.434 416.2C363.767 416.467 363.067 416.7 362.334 416.9C361.6 417.1 361.1 417.233 360.834 417.3C360.7 417.633 360.434 417.8 360.034 417.8ZM377.505 418.7C377.371 418.7 377.205 418.633 377.005 418.5C376.805 418.433 376.738 418.3 376.805 418.1C376.938 417.1 377.105 415.9 377.305 414.5C377.505 413.033 378.038 411.933 378.905 411.2C380.705 403.267 382.605 395.367 384.605 387.5C385.338 384.5 386.205 381.3 387.205 377.9C388.271 374.433 389.571 371.067 391.105 367.8C392.638 364.467 394.505 361.5 396.705 358.9C398.971 356.233 401.638 354.2 404.705 352.8C406.705 351.867 408.771 351.4 410.905 351.4C411.705 351.4 412.571 351.567 413.505 351.9C414.505 352.167 415.371 352.6 416.105 353.2C416.838 353.8 417.205 354.567 417.205 355.5C417.205 355.7 417.138 356 417.005 356.4C416.805 356.533 416.438 356.833 415.905 357.3C415.371 357.767 414.838 358.2 414.305 358.6C413.838 358.933 413.538 359.133 413.405 359.2C413.271 359.067 413.205 358.967 413.205 358.9C413.205 358.7 413.271 358.5 413.405 358.3C413.605 358.1 413.705 357.867 413.705 357.6C413.705 356.933 413.338 356.333 412.605 355.8C411.938 355.2 411.138 354.733 410.205 354.4C409.271 354 408.505 353.8 407.905 353.8C405.705 353.8 403.671 354.733 401.805 356.6C399.938 358.4 398.238 360.767 396.705 363.7C395.238 366.567 393.938 369.633 392.805 372.9C391.671 376.167 390.705 379.233 389.905 382.1C389.105 384.9 388.471 387.167 388.005 388.9C386.405 394.967 384.905 401.067 383.505 407.2C385.838 404.133 388.271 400.967 390.805 397.7C393.338 394.367 395.438 390.967 397.105 387.5C397.105 386.633 397.338 386.033 397.805 385.7C398.338 385.3 398.938 385.1 399.605 385.1C399.938 385.1 400.371 385.167 400.905 385.3C401.038 385.233 401.205 385.2 401.405 385.2C402.071 385.2 402.471 385.633 402.605 386.5C402.805 387.3 402.905 387.933 402.905 388.4C402.905 389.133 402.805 390.167 402.605 391.5C402.471 392.767 402.005 393.6 401.205 394C401.138 394.8 401.071 395.6 401.005 396.4C401.005 397.2 401.005 398.033 401.005 398.9C401.005 399.633 401.038 400.7 401.105 402.1C401.238 403.433 401.471 404.833 401.805 406.3C402.205 407.7 402.738 408.9 403.405 409.9C404.071 410.833 404.938 411.3 406.005 411.3C407.205 411.3 408.338 410.833 409.405 409.9C410.471 408.9 411.438 407.767 412.305 406.5C413.171 405.233 413.905 404.133 414.505 403.2C415.105 402.2 415.505 401.7 415.705 401.7C415.905 401.7 416.005 401.9 416.005 402.3C416.005 402.7 415.871 403.167 415.605 403.7C414.938 405.033 414.071 406.567 413.005 408.3C412.005 409.967 410.805 411.433 409.405 412.7C408.005 413.9 406.438 414.5 404.705 414.5C402.971 414.5 401.538 413.9 400.405 412.7C399.338 411.5 398.505 410.033 397.905 408.3C397.305 406.5 396.871 404.667 396.605 402.8C396.405 400.933 396.305 399.367 396.305 398.1C396.305 396.967 396.338 395.833 396.405 394.7C396.471 393.567 396.571 392.467 396.705 391.4C394.838 394.667 392.705 397.867 390.305 401C387.971 404.133 385.605 407.167 383.205 410.1V411.1C383.205 412.567 383.105 414.067 382.905 415.6C382.438 416.067 381.605 416.7 380.405 417.5C379.205 418.3 378.238 418.7 377.505 418.7ZM425.426 376.4C425.159 376.4 424.892 376.133 424.626 375.6C424.426 375.067 424.259 374.5 424.126 373.9C424.059 373.233 424.026 372.767 424.026 372.5C424.026 372.367 424.026 372.2 424.026 372C424.092 371.733 424.226 371.567 424.426 371.5C425.559 371.367 426.626 371.167 427.626 370.9C428.692 370.633 429.759 370.333 430.826 370C430.959 369.933 431.192 369.9 431.526 369.9C432.059 369.9 432.326 370.2 432.326 370.8C432.326 372.133 431.692 373.233 430.426 374.1C429.692 374.567 428.892 375.067 428.026 375.6C427.226 376.133 426.359 376.4 425.426 376.4ZM415.626 416.7C414.626 416.7 414.126 416.167 414.126 415.1C414.126 413.967 414.326 412.5 414.726 410.7C415.126 408.833 415.592 406.967 416.126 405.1C416.659 403.233 417.059 401.767 417.326 400.7C417.392 400.433 417.592 399.733 417.926 398.6C418.259 397.4 418.626 396.1 419.026 394.7C419.426 393.3 419.759 392.067 420.026 391C420.359 389.867 420.526 389.2 420.526 389C420.526 388.667 420.326 388.367 419.926 388.1C419.592 387.833 419.426 387.533 419.426 387.2C419.426 387 419.459 386.8 419.526 386.6C419.592 386.4 419.659 386.233 419.726 386.1C419.926 385.767 420.426 385.333 421.226 384.8C422.026 384.267 422.859 383.8 423.726 383.4C424.659 382.933 425.292 382.7 425.626 382.7C425.826 382.7 425.959 382.733 426.026 382.8C426.092 382.933 426.126 383.167 426.126 383.5C426.126 384.1 425.959 385 425.626 386.2C425.359 387.4 424.992 388.733 424.526 390.2C424.126 391.6 423.726 392.9 423.326 394.1C422.926 395.3 422.626 396.2 422.426 396.8C422.092 397.8 421.626 399.233 421.026 401.1C420.426 402.967 419.892 404.833 419.426 406.7C418.959 408.567 418.726 410.033 418.726 411.1C418.726 411.233 418.759 411.533 418.826 412C418.892 412.4 419.059 412.6 419.326 412.6C419.659 412.6 420.259 412.333 421.126 411.8C422.059 411.2 423.026 410.633 424.026 410.1C425.026 409.567 425.792 409.3 426.326 409.3C426.592 409.3 426.759 409.367 426.826 409.5C426.826 409.767 426.392 410.233 425.526 410.9C424.659 411.5 423.726 412.133 422.726 412.8C421.792 413.4 421.159 413.867 420.826 414.2C420.159 414.8 419.359 415.367 418.426 415.9C417.492 416.433 416.559 416.7 415.626 416.7ZM431.985 417.8C431.452 417.8 431.118 417.6 430.985 417.2C431.252 416.6 431.518 416 431.785 415.4C432.052 414.8 432.285 414.167 432.485 413.5C433.685 409.967 434.752 406.4 435.685 402.8C436.685 399.2 437.652 395.6 438.585 392L439.385 388.9C439.385 388.7 439.152 388.633 438.685 388.7C438.218 388.7 437.952 388.6 437.885 388.4C438.352 387.2 438.752 386 439.085 384.8C439.485 383.533 439.918 382.3 440.385 381.1C440.585 380.567 441.218 380.067 442.285 379.6C443.352 379.133 444.152 378.9 444.685 378.9C445.618 378.9 446.085 379.333 446.085 380.2C446.085 380.667 445.852 381.633 445.385 383.1C444.985 384.5 444.452 386.167 443.785 388.1C443.185 389.967 442.518 391.9 441.785 393.9C441.118 395.833 440.485 397.633 439.885 399.3C439.352 400.9 438.952 402.133 438.685 403C439.885 400.6 441.318 398 442.985 395.2C444.652 392.4 446.485 389.733 448.485 387.2C450.485 384.667 452.618 382.667 454.885 381.2C455.618 380.733 456.285 380.5 456.885 380.5C458.285 380.5 459.318 381.233 459.985 382.7C460.652 384.1 460.985 385.367 460.985 386.5C460.985 386.9 460.885 387.533 460.685 388.4C460.485 389.2 460.185 389.967 459.785 390.7C459.452 391.367 459.018 391.7 458.485 391.7C458.085 391.7 457.818 391.4 457.685 390.8C457.552 390.133 457.418 389.4 457.285 388.6C457.152 387.733 456.918 387 456.585 386.4C456.252 385.733 455.718 385.4 454.985 385.4C453.918 385.4 452.718 386.067 451.385 387.4C450.052 388.667 448.685 390.3 447.285 392.3C445.885 394.3 444.518 396.433 443.185 398.7C441.918 400.9 440.785 402.933 439.785 404.8C438.852 406.667 438.185 408.1 437.785 409.1C437.852 409.3 437.885 409.6 437.885 410C437.885 410.733 437.718 411.6 437.385 412.6C437.118 413.533 436.818 414.367 436.485 415.1C436.485 415.5 436.185 415.9 435.585 416.3C435.052 416.7 434.418 417.033 433.685 417.3C432.952 417.633 432.385 417.8 431.985 417.8ZM463.491 416.6C462.291 416.6 461.691 416.1 461.691 415.1C461.691 414.3 462.225 413.633 463.291 413.1C464.425 412.5 465.758 412 467.291 411.6C468.891 411.2 470.391 410.9 471.791 410.7C473.191 410.5 474.191 410.367 474.791 410.3C475.125 409.967 475.391 409.6 475.591 409.2C475.791 408.733 475.891 408.267 475.891 407.8C475.891 407.267 475.725 406.833 475.391 406.5C475.125 406.1 474.758 405.767 474.291 405.5C473.091 404.767 471.591 403.8 469.791 402.6C467.991 401.4 466.391 400.067 464.991 398.6C463.658 397.067 462.991 395.5 462.991 393.9C462.991 392.967 463.225 392.233 463.691 391.7C464.891 390.167 466.425 388.467 468.291 386.6C470.225 384.667 472.291 383.033 474.491 381.7C476.758 380.3 478.925 379.6 480.991 379.6C482.858 379.6 483.991 379.9 484.391 380.5C484.791 381.1 484.991 382.233 484.991 383.9C484.991 385.033 484.791 386.3 484.391 387.7C483.991 389.033 483.158 389.967 481.891 390.5H481.691C481.491 390.5 481.358 390.2 481.291 389.6C481.291 388.933 481.291 388.333 481.291 387.8C481.291 387.4 481.291 386.8 481.291 386C481.291 385.2 481.125 384.467 480.791 383.8C480.458 383.067 479.825 382.7 478.891 382.7C477.958 382.7 476.858 383 475.591 383.6C474.325 384.133 473.058 384.9 471.791 385.9C470.591 386.833 469.591 387.833 468.791 388.9C467.991 389.967 467.591 391 467.591 392C467.591 393.667 468.191 395.067 469.391 396.2C470.658 397.333 472.125 398.333 473.791 399.2C475.458 400.067 476.891 400.967 478.091 401.9C479.358 402.833 479.991 403.933 479.991 405.2C479.991 406.133 479.758 407.033 479.291 407.9C478.825 408.7 478.291 409.433 477.691 410.1C478.358 410.033 479.025 410 479.691 410C480.425 409.933 481.125 409.9 481.791 409.9C482.391 409.9 482.691 410.067 482.691 410.4C482.691 410.733 482.591 410.967 482.391 411.1C482.191 411.167 481.925 411.233 481.591 411.3C480.591 411.433 479.558 411.567 478.491 411.7C477.491 411.833 476.491 412 475.491 412.2C473.625 413.867 471.791 415.033 469.991 415.7C468.191 416.3 466.025 416.6 463.491 416.6ZM492.049 415.9C491.516 415.9 490.983 415.733 490.449 415.4C489.983 415.067 489.749 414.567 489.749 413.9C489.749 413.367 489.849 412.8 490.049 412.2C490.249 411.533 490.383 410.967 490.449 410.5C491.583 406.1 492.783 401.733 494.049 397.4C495.383 393 496.683 388.633 497.949 384.3H495.149C494.949 384.3 494.749 384.333 494.549 384.4C494.349 384.4 494.149 384.4 493.949 384.4H493.549C493.483 384.4 493.449 384.433 493.449 384.5C493.049 384.3 492.849 384 492.849 383.6C492.849 383.267 492.916 383 493.049 382.8C493.249 382.6 493.449 382.433 493.649 382.3C493.983 381.967 494.383 381.767 494.849 381.7C495.383 381.633 495.883 381.6 496.349 381.6C496.749 381.6 497.149 381.633 497.549 381.7C498.016 381.7 498.449 381.7 498.849 381.7C499.049 381.1 499.316 380.267 499.649 379.2C499.983 378.067 500.283 376.933 500.549 375.8C500.816 374.667 500.949 373.833 500.949 373.3C500.949 372.967 500.716 372.833 500.249 372.9C499.849 372.967 499.616 372.9 499.549 372.7C500.016 371.5 500.416 370.3 500.749 369.1C501.149 367.833 501.516 366.567 501.849 365.3C501.983 364.7 502.483 364.2 503.349 363.8C504.216 363.333 504.949 363.1 505.549 363.1C506.149 363.1 506.549 363.3 506.749 363.7C506.949 364.033 507.049 364.467 507.049 365C507.049 365.733 506.849 366.867 506.449 368.4C506.049 369.933 505.583 371.6 505.049 373.4C504.516 375.133 503.983 376.767 503.449 378.3C502.983 379.833 502.616 380.967 502.349 381.7H513.549C513.616 381.7 513.749 381.8 513.949 382C513.949 382.267 513.483 382.5 512.549 382.7C511.683 382.833 511.183 382.9 511.049 382.9C509.516 383.167 507.949 383.4 506.349 383.6C504.749 383.733 503.149 383.867 501.549 384C501.149 385.267 500.549 387.067 499.749 389.4C499.016 391.733 498.216 394.233 497.349 396.9C496.549 399.567 495.849 402.067 495.249 404.4C494.649 406.667 494.349 408.367 494.349 409.5C494.349 410.1 494.449 410.733 494.649 411.4C494.916 412 495.416 412.3 496.149 412.3C497.149 412.3 498.183 411.933 499.249 411.2C500.383 410.467 501.449 409.633 502.449 408.7C503.516 407.767 504.416 406.933 505.149 406.2C505.883 405.467 506.383 405.1 506.649 405.1C506.983 405.1 507.149 405.333 507.149 405.8C507.149 405.933 507.116 406.233 507.049 406.7C507.049 407.167 506.883 407.4 506.549 407.4C505.883 408.067 504.916 408.9 503.649 409.9C502.449 410.833 501.116 411.767 499.649 412.7C498.249 413.567 496.849 414.333 495.449 415C494.116 415.6 492.983 415.9 492.049 415.9Z" fill="#143343"/>
<path d="M230.006 40.0961L239.694 44.4017V30.9466C239.694 23.95 241.577 19.9135 241.577 19.9135C241.577 19.9135 245.797 21.411 250.188 24.7573C255.84 29.0629 260.145 34.1759 260.145 34.1759L263.913 25.8337C263.913 25.8337 259.338 21.5281 252.88 18.2989C246.421 15.0696 238.886 14.8005 238.886 14.8005C238.886 14.8005 234.438 21.2102 232.697 25.8337C230.7 31.1383 230.006 40.0961 230.006 40.0961Z" fill="#093B66"/>
<path d="M340.069 39.5579L330.382 43.8635V30.4084C330.382 23.4118 328.498 19.3753 328.498 19.3753C328.498 19.3753 324.279 20.8728 319.887 24.2191C314.236 28.5247 309.93 33.6377 309.93 33.6377L306.163 25.2955C306.163 25.2955 310.737 20.9899 317.196 17.7607C323.654 14.5314 331.189 14.2623 331.189 14.2623C331.189 14.2623 335.638 20.672 337.378 25.2955C339.376 30.6001 340.069 39.5579 340.069 39.5579Z" fill="#093B66"/>
<path d="M219.511 99.2986L216.82 95.5311C216.82 95.5311 208.202 96.7795 202.827 98.2221C193.044 100.848 188.778 106.042 178.877 108.179C172.785 109.494 163 109.794 163 109.794C163 109.794 183.721 134.82 219.511 139.395C256.519 144.125 277.906 123.249 277.906 123.249C277.906 123.249 252.88 138.857 219.511 131.591C206.791 128.821 189.641 116.79 189.641 116.79C189.641 116.79 197.854 110.234 203.634 106.833C209.55 103.353 219.511 99.2986 219.511 99.2986Z" fill="#093B66"/>
<path d="M350.026 98.7603L352.717 94.9929C352.717 94.9929 361.335 96.2413 366.71 97.6839C376.493 100.31 380.759 105.504 390.66 107.641C396.752 108.956 406.537 109.255 406.537 109.255C406.537 109.255 385.816 134.282 350.026 138.856C313.018 143.587 291.631 122.71 291.631 122.71C291.631 122.71 316.657 138.318 350.026 131.053C362.746 128.283 379.896 116.252 379.896 116.252C379.896 116.252 371.683 109.696 365.903 106.295C359.987 102.815 350.026 98.7603 350.026 98.7603Z" fill="#093B66"/>
<path d="M187.662 102.42L197.5 98.4716L187.849 89.0965C182.831 84.2215 181.248 80.0577 181.248 80.0577C181.248 80.0577 185.262 78.0747 190.722 77.256C197.748 76.2025 204.416 76.6766 204.416 76.6766L201.057 68.1617C201.057 68.1617 194.781 68.4431 187.965 70.8257C181.148 73.2083 175.705 78.4255 175.705 78.4255C175.705 78.4255 177.203 86.0824 179.307 90.5526C181.72 95.6813 187.662 102.42 187.662 102.42Z" fill="#093B66"/>
<path d="M382.413 101.882L372.575 97.9334C372.575 97.9334 376.989 94.5103 382.587 89.0727C387.606 84.1976 388.828 79.5195 388.828 79.5195C388.828 79.5195 384.813 77.5365 379.353 76.7178C372.327 75.6643 365.66 76.1384 365.66 76.1384L369.018 67.6235C369.018 67.6235 375.294 67.9049 382.111 70.2875C388.927 72.67 394.37 77.8873 394.37 77.8873C394.37 77.8873 392.872 85.5442 390.769 90.0144C388.355 95.1431 382.413 101.882 382.413 101.882Z" fill="#093B66"/>
<path d="M216.013 91.4946C243.462 123.249 274.408 120.019 274.408 120.019C274.408 120.019 247.818 118.674 224.355 85.3052C212.246 68.0827 210.9 49.2456 210.9 49.2456C210.9 49.2456 223.172 51.4465 230.545 54.3585C241.745 58.7821 256.648 70.7738 256.648 70.7738V57.8569C256.648 57.8569 245.614 48.7074 230.545 42.5181C215.475 36.3287 197.983 36.3287 197.983 36.3287C197.983 36.3287 199.329 72.1931 216.013 91.4946Z" fill="#093B66"/>
<path d="M354.332 90.4182C326.883 122.172 295.936 118.943 295.936 118.943C295.936 118.943 322.527 117.597 345.989 84.2288C358.099 67.0063 359.444 48.1692 359.444 48.1692C359.444 48.1692 347.173 50.3701 339.8 53.2821C328.6 57.7057 313.697 69.6973 313.697 69.6973V56.7805C313.697 56.7805 324.73 47.631 339.8 41.4417C354.87 35.2523 372.361 35.2523 372.361 35.2523C372.361 35.2523 371.016 71.1167 354.332 90.4182Z" fill="#093B66"/>
<path d="M258.531 58.9333C258.531 92.0721 280.059 113.561 280.059 113.561C280.059 113.561 263.211 88.2654 267.681 58.9333C271.535 33.6377 284.903 18.0298 284.903 18.0298C284.903 18.0298 300.089 37.4436 301.857 62.9698C304.279 97.953 288.671 114.368 288.671 114.368C288.671 114.368 309.93 98.7603 311.275 60.5479C312.441 27.4484 285.172 0 285.172 0C285.172 0 258.531 23.9501 258.531 58.9333Z" fill="#093B66"/>
<defs>
<linearGradient id="paint0_linear_41_3" x1="-19" y1="225.5" x2="513" y2="214" gradientUnits="userSpaceOnUse">
<stop stop-color="#093B66"/>
<stop offset="1" stop-color="#3380A9"/>
</linearGradient>
<linearGradient id="paint1_linear_41_3" x1="455.5" y1="310" x2="641" y2="309" gradientUnits="userSpaceOnUse">
<stop stop-color="#3380A9"/>
<stop offset="0.582854" stop-color="#1C4E79"/>
<stop offset="1" stop-color="#093B66"/>
</linearGradient>
</defs>
</svg>
