<svg width="689" height="438" viewBox="0 0 689 438" fill="none" xmlns="http://www.w3.org/2000/svg">
<path d="M29.5406 276.9C33.474 276.9 36.5073 277.333 38.6406 278.2C40.774 279 42.6073 279.867 44.1406 280.8C44.9406 281.267 45.574 281.633 46.0406 281.9C46.574 282.1 47.074 282.2 47.5406 282.2C48.2073 282.2 48.674 281.833 48.9406 281.1C49.274 280.367 49.5406 279.267 49.7406 277.8H52.0406C51.974 279.067 51.874 280.6 51.7406 282.4C51.674 284.133 51.6073 286.433 51.5406 289.3C51.5406 292.167 51.5406 295.933 51.5406 300.6H49.2406C48.974 297.133 48.174 293.767 46.8406 290.5C45.5073 287.233 43.6073 284.567 41.1406 282.5C38.7406 280.367 35.774 279.3 32.2406 279.3C29.0406 279.3 26.4073 280.2 24.3406 282C22.274 283.8 21.2406 286.3 21.2406 289.5C21.2406 292.167 21.9073 294.467 23.2406 296.4C24.574 298.267 26.5073 300.1 29.0406 301.9C31.6406 303.7 34.774 305.867 38.4406 308.4C41.6406 310.467 44.5073 312.533 47.0406 314.6C49.574 316.667 51.6073 319 53.1406 321.6C54.674 324.2 55.4406 327.3 55.4406 330.9C55.4406 335.3 54.274 338.933 51.9406 341.8C49.674 344.667 46.674 346.833 42.9406 348.3C39.2073 349.7 35.1073 350.4 30.6406 350.4C26.5073 350.4 23.2073 350 20.7406 349.2C18.274 348.4 16.2073 347.567 14.5406 346.7C13.074 345.767 11.9406 345.3 11.1406 345.3C10.474 345.3 9.97396 345.667 9.64063 346.4C9.37396 347.133 9.14063 348.233 8.94063 349.7H6.64063C6.77396 348.1 6.84063 346.233 6.84063 344.1C6.90729 341.967 6.94063 339.2 6.94063 335.8C7.00729 332.333 7.04063 327.967 7.04063 322.7H9.34063C9.60729 327.1 10.3406 331.233 11.5406 335.1C12.8073 338.9 14.7073 341.967 17.2406 344.3C19.8406 346.633 23.274 347.8 27.5406 347.8C29.874 347.8 31.9406 347.4 33.7406 346.6C35.6073 345.733 37.1073 344.467 38.2406 342.8C39.374 341.133 39.9406 339.067 39.9406 336.6C39.9406 333.8 39.274 331.367 37.9406 329.3C36.674 327.233 34.9073 325.3 32.6406 323.5C30.4406 321.7 27.874 319.867 24.9406 318C21.8073 315.933 18.874 313.867 16.1406 311.8C13.4073 309.733 11.2073 307.367 9.54063 304.7C7.94063 302.033 7.14063 298.867 7.14063 295.2C7.14063 291 8.17396 287.567 10.2406 284.9C12.374 282.167 15.1406 280.167 18.5406 278.9C22.0073 277.567 25.674 276.9 29.5406 276.9ZM75.7391 349.7C72.7391 349.7 70.2391 349.133 68.2391 348C66.2391 346.867 64.7724 345.367 63.8391 343.5C62.9057 341.567 62.4391 339.467 62.4391 337.2C62.4391 334.333 63.0724 332 64.3391 330.2C65.6724 328.4 67.3724 326.933 69.4391 325.8C71.5057 324.667 73.6724 323.733 75.9391 323C78.2724 322.267 80.4724 321.567 82.5391 320.9C84.6724 320.167 86.3724 319.333 87.6391 318.4C88.9724 317.4 89.6391 316.133 89.6391 314.6V306.8C89.6391 305.067 89.3391 303.533 88.7391 302.2C88.2057 300.8 87.3391 299.733 86.1391 299C85.0057 298.267 83.5057 297.9 81.6391 297.9C80.3057 297.9 78.9724 298.1 77.6391 298.5C76.3057 298.833 75.2057 299.433 74.3391 300.3C76.2057 300.967 77.6391 302 78.6391 303.4C79.7057 304.733 80.2391 306.267 80.2391 308C80.2391 310.267 79.4391 312.067 77.8391 313.4C76.3057 314.733 74.4724 315.4 72.3391 315.4C69.9391 315.4 68.1057 314.667 66.8391 313.2C65.6391 311.667 65.0391 309.833 65.0391 307.7C65.0391 305.767 65.5057 304.167 66.4391 302.9C67.4391 301.633 68.8057 300.433 70.5391 299.3C72.4057 298.233 74.6391 297.4 77.2391 296.8C79.9057 296.2 82.7724 295.9 85.8391 295.9C88.9057 295.9 91.6724 296.233 94.1391 296.9C96.6057 297.5 98.6724 298.633 100.339 300.3C101.872 301.833 102.872 303.733 103.339 306C103.806 308.2 104.039 311 104.039 314.4V341.6C104.039 343.267 104.206 344.433 104.539 345.1C104.872 345.7 105.439 346 106.239 346C106.839 346 107.406 345.833 107.939 345.5C108.539 345.167 109.172 344.767 109.839 344.3L110.839 346C109.439 347.2 107.806 348.133 105.939 348.8C104.139 349.4 102.106 349.7 99.8391 349.7C97.3724 349.7 95.4057 349.367 93.9391 348.7C92.4724 347.967 91.4057 347 90.7391 345.8C90.1391 344.6 89.8391 343.2 89.8391 341.6C88.2391 344.133 86.3057 346.133 84.0391 347.6C81.7724 349 79.0057 349.7 75.7391 349.7ZM82.8391 343.3C84.1724 343.3 85.3724 343 86.4391 342.4C87.5724 341.733 88.6391 340.667 89.6391 339.2V318.7C89.0391 319.7 88.2057 320.6 87.1391 321.4C86.0724 322.2 84.9391 323.033 83.7391 323.9C82.5391 324.7 81.3724 325.6 80.2391 326.6C79.1724 327.6 78.3057 328.833 77.6391 330.3C76.9724 331.767 76.6391 333.533 76.6391 335.6C76.6391 338.2 77.2057 340.133 78.3391 341.4C79.4724 342.667 80.9724 343.3 82.8391 343.3ZM150.897 295.9C153.697 295.9 155.964 296.267 157.697 297C159.497 297.667 160.897 298.6 161.897 299.8C162.964 301.067 163.73 302.7 164.197 304.7C164.73 306.7 164.997 309.4 164.997 312.8V339.7C164.997 342.5 165.464 344.4 166.397 345.4C167.397 346.4 169.064 346.9 171.397 346.9V349C170.13 348.933 168.23 348.867 165.697 348.8C163.164 348.667 160.664 348.6 158.197 348.6C155.664 348.6 153.164 348.667 150.697 348.8C148.297 348.867 146.464 348.933 145.197 349V346.9C147.197 346.9 148.597 346.4 149.397 345.4C150.197 344.4 150.597 342.5 150.597 339.7V308.6C150.597 306.933 150.43 305.5 150.097 304.3C149.764 303.033 149.164 302.067 148.297 301.4C147.43 300.667 146.13 300.3 144.397 300.3C142.597 300.3 140.93 300.8 139.397 301.8C137.93 302.8 136.73 304.2 135.797 306C134.93 307.733 134.497 309.7 134.497 311.9V339.7C134.497 342.5 134.897 344.4 135.697 345.4C136.564 346.4 137.964 346.9 139.897 346.9V349C138.697 348.933 136.93 348.867 134.597 348.8C132.33 348.667 129.964 348.6 127.497 348.6C124.964 348.6 122.364 348.667 119.697 348.8C117.03 348.867 115.03 348.933 113.697 349V346.9C116.03 346.9 117.664 346.4 118.597 345.4C119.597 344.4 120.097 342.5 120.097 339.7V308.2C120.097 305.2 119.63 303 118.697 301.6C117.83 300.133 116.164 299.4 113.697 299.4V297.3C115.83 297.5 117.897 297.6 119.897 297.6C122.697 297.6 125.297 297.5 127.697 297.3C130.164 297.033 132.43 296.667 134.497 296.2V305.2C136.164 301.8 138.43 299.4 141.297 298C144.164 296.6 147.364 295.9 150.897 295.9ZM194.923 295.9C197.723 295.9 200.156 296.267 202.223 297C204.356 297.667 205.889 298.333 206.823 299C209.089 300.533 210.489 299.533 211.023 296H213.123C212.989 297.867 212.889 300.167 212.823 302.9C212.756 305.567 212.723 309.133 212.723 313.6H210.623C210.289 311.133 209.656 308.7 208.723 306.3C207.789 303.9 206.423 301.933 204.623 300.4C202.889 298.867 200.623 298.1 197.823 298.1C195.889 298.1 194.256 298.667 192.923 299.8C191.589 300.867 190.923 302.433 190.923 304.5C190.923 306.5 191.523 308.267 192.723 309.8C193.923 311.267 195.456 312.7 197.323 314.1C199.256 315.433 201.256 316.867 203.323 318.4C205.523 320.067 207.523 321.733 209.323 323.4C211.123 325 212.556 326.767 213.623 328.7C214.689 330.633 215.223 332.933 215.223 335.6C215.223 338.6 214.356 341.233 212.623 343.5C210.889 345.7 208.589 347.4 205.723 348.6C202.923 349.8 199.789 350.4 196.323 350.4C194.323 350.4 192.523 350.2 190.923 349.8C189.389 349.4 188.056 348.9 186.923 348.3C186.056 347.9 185.223 347.533 184.423 347.2C183.689 346.8 182.989 346.467 182.323 346.2C181.656 346 181.056 346.233 180.523 346.9C180.056 347.567 179.689 348.5 179.423 349.7H177.323C177.456 347.567 177.556 344.967 177.623 341.9C177.689 338.833 177.723 334.767 177.723 329.7H179.823C180.223 333.3 180.956 336.5 182.023 339.3C183.089 342.033 184.523 344.2 186.323 345.8C188.189 347.333 190.523 348.1 193.323 348.1C194.456 348.1 195.556 347.867 196.623 347.4C197.689 346.933 198.556 346.167 199.223 345.1C199.956 344.033 200.323 342.667 200.323 341C200.323 338.067 199.356 335.633 197.423 333.7C195.556 331.767 193.156 329.667 190.223 327.4C188.089 325.667 186.056 323.967 184.123 322.3C182.256 320.567 180.723 318.7 179.523 316.7C178.323 314.633 177.723 312.3 177.723 309.7C177.723 306.7 178.523 304.167 180.123 302.1C181.723 300.033 183.823 298.5 186.423 297.5C189.089 296.433 191.923 295.9 194.923 295.9ZM241.614 270.8V305.2C243.281 301.733 245.514 299.333 248.314 298C251.181 296.6 254.381 295.9 257.914 295.9C260.781 295.9 263.081 296.267 264.814 297C266.547 297.667 267.914 298.6 268.914 299.8C270.047 301.067 270.847 302.7 271.314 304.7C271.847 306.7 272.114 309.4 272.114 312.8V339.7C272.114 342.5 272.581 344.4 273.514 345.4C274.514 346.4 276.181 346.9 278.514 346.9V349C277.247 348.933 275.314 348.867 272.714 348.8C270.181 348.667 267.714 348.6 265.314 348.6C262.714 348.6 260.181 348.667 257.714 348.8C255.314 348.867 253.514 348.933 252.314 349V346.9C254.314 346.9 255.714 346.4 256.514 345.4C257.314 344.4 257.714 342.5 257.714 339.7V308.6C257.714 306.933 257.547 305.5 257.214 304.3C256.881 303.033 256.247 302.067 255.314 301.4C254.447 300.667 253.181 300.3 251.514 300.3C249.714 300.3 248.047 300.8 246.514 301.8C245.047 302.733 243.847 304.067 242.914 305.8C242.047 307.533 241.614 309.533 241.614 311.8V339.7C241.614 342.5 242.014 344.4 242.814 345.4C243.614 346.4 245.014 346.9 247.014 346.9V349C245.814 348.933 244.047 348.867 241.714 348.8C239.381 348.667 237.014 348.6 234.614 348.6C232.014 348.6 229.381 348.667 226.714 348.8C224.114 348.867 222.147 348.933 220.814 349V346.9C223.147 346.9 224.781 346.4 225.714 345.4C226.714 344.4 227.214 342.5 227.214 339.7V282.8C227.214 279.8 226.747 277.6 225.814 276.2C224.947 274.733 223.281 274 220.814 274V271.9C222.947 272.1 225.014 272.2 227.014 272.2C229.747 272.2 232.347 272.1 234.814 271.9C237.281 271.633 239.547 271.267 241.614 270.8ZM295.154 271.5C297.954 271.5 300.154 272.2 301.754 273.6C303.421 274.933 304.254 276.8 304.254 279.2C304.254 281.6 303.421 283.5 301.754 284.9C300.154 286.233 297.954 286.9 295.154 286.9C292.354 286.9 290.121 286.233 288.454 284.9C286.854 283.5 286.054 281.6 286.054 279.2C286.054 276.8 286.854 274.933 288.454 273.6C290.121 272.2 292.354 271.5 295.154 271.5ZM302.954 296.2V339.7C302.954 342.5 303.421 344.4 304.354 345.4C305.354 346.4 307.021 346.9 309.354 346.9V349C308.154 348.933 306.287 348.867 303.754 348.8C301.221 348.667 298.654 348.6 296.054 348.6C293.454 348.6 290.821 348.667 288.154 348.8C285.487 348.867 283.487 348.933 282.154 349V346.9C284.487 346.9 286.121 346.4 287.054 345.4C288.054 344.4 288.554 342.5 288.554 339.7V308.2C288.554 305.2 288.087 303 287.154 301.6C286.287 300.133 284.621 299.4 282.154 299.4V297.3C284.287 297.5 286.354 297.6 288.354 297.6C291.154 297.6 293.754 297.5 296.154 297.3C298.621 297.033 300.887 296.667 302.954 296.2ZM391.537 278.2C391.27 281.133 391.07 283.967 390.937 286.7C390.87 289.433 390.837 291.533 390.837 293C390.837 294.333 390.87 295.6 390.937 296.8C391.003 298 391.07 299 391.137 299.8H388.837C388.17 294.933 387.137 291.1 385.737 288.3C384.337 285.433 382.503 283.433 380.237 282.3C378.037 281.1 375.437 280.5 372.437 280.5H368.337C366.403 280.5 364.937 280.667 363.937 281C362.937 281.333 362.27 282 361.937 283C361.603 284 361.437 285.533 361.437 287.6V339.6C361.437 341.667 361.603 343.2 361.937 344.2C362.27 345.2 362.937 345.867 363.937 346.2C364.937 346.533 366.403 346.7 368.337 346.7H373.237C376.237 346.7 378.87 346.067 381.137 344.8C383.47 343.467 385.437 341.233 387.037 338.1C388.703 334.967 389.97 330.733 390.837 325.4H393.137C392.937 327.533 392.837 330.333 392.837 333.8C392.837 335.333 392.87 337.5 392.937 340.3C393.003 343.1 393.203 346 393.537 349C390.137 348.867 386.303 348.8 382.037 348.8C377.77 348.733 373.97 348.7 370.637 348.7C368.97 348.7 366.837 348.7 364.237 348.7C361.637 348.7 358.837 348.733 355.837 348.8C352.837 348.8 349.803 348.833 346.737 348.9C343.67 348.9 340.77 348.933 338.037 349V347C340.17 346.867 341.77 346.6 342.837 346.2C343.903 345.8 344.603 345 344.937 343.8C345.337 342.6 345.537 340.8 345.537 338.4V288.8C345.537 286.333 345.337 284.533 344.937 283.4C344.603 282.2 343.87 281.4 342.737 281C341.67 280.533 340.103 280.267 338.037 280.2V278.2C340.77 278.267 343.67 278.333 346.737 278.4C349.803 278.4 352.837 278.433 355.837 278.5C358.837 278.5 361.637 278.5 364.237 278.5C366.837 278.5 368.97 278.5 370.637 278.5C373.703 278.5 377.17 278.5 381.037 278.5C384.97 278.433 388.47 278.333 391.537 278.2ZM375.937 312.4C375.937 312.4 375.937 312.733 375.937 313.4C375.937 314.067 375.937 314.4 375.937 314.4H358.437C358.437 314.4 358.437 314.067 358.437 313.4C358.437 312.733 358.437 312.4 358.437 312.4H375.937ZM378.837 299.2C378.57 303 378.437 305.9 378.437 307.9C378.503 309.9 378.537 311.733 378.537 313.4C378.537 315.067 378.57 316.9 378.637 318.9C378.703 320.9 378.87 323.8 379.137 327.6H376.837C376.503 325.267 375.87 323.1 374.937 321.1C374.07 319.1 372.803 317.5 371.137 316.3C369.47 315.033 367.303 314.4 364.637 314.4V312.4C366.637 312.4 368.337 312 369.737 311.2C371.137 310.333 372.27 309.233 373.137 307.9C374.07 306.5 374.803 305.033 375.337 303.5C375.87 301.967 376.27 300.533 376.537 299.2H378.837ZM440.116 317.8V326.1H404.016V317.8H440.116ZM485.86 276.8C490.26 276.8 493.86 277.467 496.66 278.8C499.527 280.067 502.06 281.567 504.26 283.3C505.593 284.3 506.593 284.433 507.26 283.7C507.993 282.9 508.493 281.067 508.76 278.2H511.06C510.927 280.8 510.827 283.967 510.76 287.7C510.693 291.367 510.66 296.267 510.66 302.4H508.36C508.027 299.333 507.593 296.733 507.06 294.6C506.527 292.4 505.793 290.467 504.86 288.8C503.927 287.133 502.593 285.633 500.86 284.3C499.193 282.633 497.26 281.4 495.06 280.6C492.86 279.8 490.56 279.4 488.16 279.4C484.56 279.4 481.493 280.367 478.96 282.3C476.427 284.167 474.36 286.733 472.76 290C471.227 293.267 470.093 296.967 469.36 301.1C468.627 305.167 468.26 309.4 468.26 313.8C468.26 318.267 468.627 322.567 469.36 326.7C470.16 330.767 471.36 334.4 472.96 337.6C474.627 340.8 476.76 343.333 479.36 345.2C481.96 347.067 485.027 348 488.56 348C490.76 348 492.96 347.6 495.16 346.8C497.427 345.933 499.36 344.7 500.96 343.1C503.56 341.1 505.327 338.633 506.26 335.7C507.193 332.7 507.893 328.733 508.36 323.8H510.66C510.66 330.133 510.693 335.267 510.76 339.2C510.827 343.067 510.927 346.333 511.06 349H508.76C508.493 346.133 508.027 344.333 507.36 343.6C506.76 342.867 505.727 342.967 504.26 343.9C501.793 345.633 499.16 347.167 496.36 348.5C493.627 349.767 490.093 350.4 485.76 350.4C478.693 350.4 472.493 348.967 467.16 346.1C461.893 343.233 457.793 339.1 454.86 333.7C451.927 328.3 450.46 321.8 450.46 314.2C450.46 306.733 451.96 300.2 454.96 294.6C458.027 289 462.193 284.633 467.46 281.5C472.793 278.367 478.927 276.8 485.86 276.8ZM556.368 276.8C563.435 276.8 569.601 278.233 574.868 281.1C580.201 283.967 584.335 288.1 587.268 293.5C590.201 298.833 591.668 305.333 591.668 313C591.668 320.467 590.168 327 587.168 332.6C584.168 338.2 579.968 342.567 574.568 345.7C569.235 348.833 563.135 350.4 556.268 350.4C549.201 350.4 543.001 348.967 537.668 346.1C532.401 343.233 528.301 339.1 525.368 333.7C522.435 328.3 520.968 321.8 520.968 314.2C520.968 306.733 522.468 300.2 525.468 294.6C528.535 289 532.701 284.633 537.968 281.5C543.301 278.367 549.435 276.8 556.368 276.8ZM555.968 278.6C552.235 278.6 548.968 280.1 546.168 283.1C543.435 286.1 541.301 290.233 539.768 295.5C538.301 300.767 537.568 306.867 537.568 313.8C537.568 320.867 538.401 327.033 540.068 332.3C541.801 337.5 544.101 341.533 546.968 344.4C549.901 347.2 553.135 348.6 556.668 348.6C560.401 348.6 563.635 347.1 566.368 344.1C569.168 341.1 571.301 336.967 572.768 331.7C574.301 326.367 575.068 320.267 575.068 313.4C575.068 306.267 574.201 300.1 572.468 294.9C570.801 289.7 568.501 285.7 565.568 282.9C562.701 280.033 559.501 278.6 555.968 278.6ZM684.584 278.2V280.2C682.45 280.267 680.85 280.533 679.784 281C678.717 281.4 677.984 282.2 677.584 283.4C677.25 284.533 677.084 286.333 677.084 288.8V338.4C677.084 340.8 677.25 342.6 677.584 343.8C677.984 345 678.717 345.8 679.784 346.2C680.85 346.6 682.45 346.867 684.584 347V349C682.717 348.867 680.35 348.8 677.484 348.8C674.684 348.733 671.817 348.7 668.884 348.7C665.684 348.7 662.684 348.733 659.884 348.8C657.084 348.8 654.817 348.867 653.084 349V347C655.35 346.867 657.05 346.6 658.184 346.2C659.384 345.8 660.184 345 660.584 343.8C660.984 342.6 661.184 340.8 661.184 338.4V284.3H661.884L637.084 349.1H635.484L608.484 284.7V332.6C608.484 336.267 608.684 339.1 609.084 341.1C609.484 343.033 610.35 344.433 611.684 345.3C613.084 346.1 615.25 346.667 618.184 347V349C616.917 348.867 615.25 348.8 613.184 348.8C611.117 348.733 609.184 348.7 607.384 348.7C605.85 348.7 604.284 348.733 602.684 348.8C601.084 348.8 599.75 348.867 598.684 349V347C600.817 346.667 602.417 346.1 603.484 345.3C604.55 344.5 605.25 343.2 605.584 341.4C605.984 339.533 606.184 337 606.184 333.8V288.8C606.184 286.333 605.984 284.533 605.584 283.4C605.25 282.2 604.517 281.4 603.384 281C602.317 280.533 600.75 280.267 598.684 280.2V278.2C599.75 278.267 601.084 278.333 602.684 278.4C604.284 278.467 605.85 278.5 607.384 278.5C610.25 278.5 613.05 278.467 615.784 278.4C618.584 278.333 621.05 278.267 623.184 278.2L644.184 328.9L641.684 331.2L661.784 278.5C662.917 278.5 664.084 278.5 665.284 278.5C666.484 278.5 667.684 278.5 668.884 278.5C671.817 278.5 674.684 278.467 677.484 278.4C680.35 278.333 682.717 278.267 684.584 278.2Z" fill="#300B15"/>
<path d="M76.0122 381.46V382.66C75.1322 383.02 74.2322 383.74 73.3122 384.82C72.3922 385.86 71.3722 387.46 70.2522 389.62L58.9122 412.06H56.0922L42.0522 386.08C41.3322 384.72 40.6722 383.82 40.0722 383.38C39.5122 382.94 39.0122 382.72 38.5722 382.72V381.46C39.6522 381.58 40.7522 381.66 41.8722 381.7C43.0322 381.74 44.2922 381.76 45.6522 381.76C47.4122 381.76 49.3122 381.74 51.3522 381.7C53.3922 381.62 55.2522 381.54 56.9322 381.46V382.72C55.9322 382.72 55.0322 382.8 54.2322 382.96C53.4322 383.12 52.8722 383.42 52.5522 383.86C52.2322 384.26 52.3122 384.92 52.7922 385.84L62.2722 404.08L60.4122 406.48L66.5922 394.06C68.0722 391.18 68.8522 388.92 68.9322 387.28C69.0522 385.64 68.6522 384.48 67.7322 383.8C66.8522 383.08 65.5922 382.7 63.9522 382.66V381.46C65.3122 381.5 66.5922 381.54 67.7922 381.58C68.9922 381.62 70.2122 381.64 71.4522 381.64C72.3322 381.64 73.1522 381.62 73.9122 381.58C74.7122 381.54 75.4122 381.5 76.0122 381.46ZM63.1722 402.58V417.64C63.1722 419.08 63.2722 420.16 63.4722 420.88C63.7122 421.6 64.1522 422.08 64.7922 422.32C65.4322 422.56 66.3922 422.72 67.6722 422.8V424C66.5922 423.92 65.1922 423.88 63.4722 423.88C61.7922 423.84 60.1122 423.82 58.4322 423.82C56.5522 423.82 54.7722 423.84 53.0922 423.88C51.4122 423.88 50.0922 423.92 49.1322 424V422.8C50.4122 422.72 51.3722 422.56 52.0122 422.32C52.6522 422.08 53.0722 421.6 53.2722 420.88C53.5122 420.16 53.6322 419.08 53.6322 417.64V405.34L58.8522 409.06L63.1722 402.58ZM88.4317 392.14C91.3517 392.14 93.9117 392.68 96.1117 393.76C98.3117 394.84 100.032 396.58 101.272 398.98C102.512 401.38 103.132 404.56 103.132 408.52C103.132 412.48 102.512 415.66 101.272 418.06C100.032 420.42 98.3117 422.14 96.1117 423.22C93.9117 424.3 91.3517 424.84 88.4317 424.84C85.5917 424.84 83.0517 424.3 80.8117 423.22C78.6117 422.14 76.8717 420.42 75.5917 418.06C74.3517 415.66 73.7317 412.48 73.7317 408.52C73.7317 404.56 74.3517 401.38 75.5917 398.98C76.8717 396.58 78.6117 394.84 80.8117 393.76C83.0517 392.68 85.5917 392.14 88.4317 392.14ZM88.4317 393.34C86.8317 393.34 85.4917 394.54 84.4117 396.94C83.3317 399.3 82.7917 403.16 82.7917 408.52C82.7917 413.88 83.3317 417.74 84.4117 420.1C85.4917 422.46 86.8317 423.64 88.4317 423.64C90.0717 423.64 91.4117 422.46 92.4517 420.1C93.5317 417.74 94.0717 413.88 94.0717 408.52C94.0717 403.16 93.5317 399.3 92.4517 396.94C91.4117 394.54 90.0717 393.34 88.4317 393.34ZM136.758 392.32V417.46C136.758 419.26 137.038 420.6 137.598 421.48C138.158 422.32 139.158 422.74 140.598 422.74V424C139.358 423.88 138.118 423.82 136.878 423.82C135.198 423.82 133.638 423.88 132.198 424C130.758 424.12 129.398 424.34 128.118 424.66V419.26C127.158 421.26 125.818 422.7 124.098 423.58C122.418 424.42 120.538 424.84 118.458 424.84C116.778 424.84 115.418 424.62 114.378 424.18C113.338 423.74 112.518 423.18 111.918 422.5C111.238 421.74 110.758 420.74 110.478 419.5C110.198 418.26 110.058 416.66 110.058 414.7V399.52C110.058 397.72 109.778 396.4 109.218 395.56C108.698 394.68 107.698 394.24 106.218 394.24V392.98C107.498 393.1 108.738 393.16 109.938 393.16C111.618 393.16 113.178 393.1 114.618 392.98C116.098 392.82 117.458 392.6 118.698 392.32V417.16C118.698 418.16 118.778 419.04 118.938 419.8C119.138 420.56 119.498 421.16 120.018 421.6C120.538 422 121.298 422.2 122.298 422.2C123.378 422.2 124.338 421.9 125.178 421.3C126.058 420.7 126.758 419.88 127.278 418.84C127.838 417.76 128.118 416.56 128.118 415.24V399.52C128.118 397.72 127.838 396.4 127.278 395.56C126.758 394.68 125.758 394.24 124.278 394.24V392.98C125.558 393.1 126.798 393.16 127.998 393.16C129.678 393.16 131.238 393.1 132.678 392.98C134.158 392.82 135.518 392.6 136.758 392.32ZM163.904 392.14C165.184 392.14 166.224 392.42 167.024 392.98C167.824 393.5 168.404 394.18 168.764 395.02C169.164 395.86 169.364 396.74 169.364 397.66C169.364 399.14 168.924 400.36 168.044 401.32C167.204 402.24 166.084 402.7 164.684 402.7C163.284 402.7 162.184 402.36 161.384 401.68C160.624 400.96 160.244 400.02 160.244 398.86C160.244 397.74 160.484 396.82 160.964 396.1C161.484 395.34 162.124 394.7 162.884 394.18C162.324 394.02 161.764 394.04 161.204 394.24C160.444 394.36 159.724 394.68 159.044 395.2C158.364 395.68 157.784 396.3 157.304 397.06C156.824 397.78 156.444 398.58 156.164 399.46C155.884 400.3 155.744 401.12 155.744 401.92V417.82C155.744 419.74 156.204 421.04 157.124 421.72C158.084 422.4 159.504 422.74 161.384 422.74V424C160.464 423.96 159.124 423.92 157.364 423.88C155.604 423.8 153.764 423.76 151.844 423.76C150.244 423.76 148.624 423.8 146.984 423.88C145.344 423.92 144.104 423.96 143.264 424V422.74C144.664 422.74 145.644 422.44 146.204 421.84C146.804 421.24 147.104 420.1 147.104 418.42V399.52C147.104 397.72 146.824 396.4 146.264 395.56C145.744 394.68 144.744 394.24 143.264 394.24V392.98C144.544 393.1 145.784 393.16 146.984 393.16C148.664 393.16 150.224 393.1 151.664 392.98C153.144 392.82 154.504 392.6 155.744 392.32V397.9C156.224 396.82 156.864 395.84 157.664 394.96C158.464 394.08 159.384 393.4 160.424 392.92C161.464 392.4 162.624 392.14 163.904 392.14ZM199.587 380.74C201.947 380.74 203.767 381 205.047 381.52C206.327 382 207.427 382.52 208.347 383.08C208.827 383.36 209.207 383.58 209.487 383.74C209.807 383.86 210.107 383.92 210.387 383.92C210.787 383.92 211.067 383.7 211.227 383.26C211.427 382.82 211.587 382.16 211.707 381.28H213.087C213.047 382.04 212.987 382.96 212.907 384.04C212.867 385.08 212.827 386.46 212.787 388.18C212.787 389.9 212.787 392.16 212.787 394.96H211.407C211.247 392.88 210.767 390.86 209.967 388.9C209.167 386.94 208.027 385.34 206.547 384.1C205.107 382.82 203.327 382.18 201.207 382.18C199.287 382.18 197.707 382.72 196.467 383.8C195.227 384.88 194.607 386.38 194.607 388.3C194.607 389.9 195.007 391.28 195.807 392.44C196.607 393.56 197.767 394.66 199.287 395.74C200.847 396.82 202.727 398.12 204.927 399.64C206.847 400.88 208.567 402.12 210.087 403.36C211.607 404.6 212.827 406 213.747 407.56C214.667 409.12 215.127 410.98 215.127 413.14C215.127 415.78 214.427 417.96 213.027 419.68C211.667 421.4 209.867 422.7 207.627 423.58C205.387 424.42 202.927 424.84 200.247 424.84C197.767 424.84 195.787 424.6 194.307 424.12C192.827 423.64 191.587 423.14 190.587 422.62C189.707 422.06 189.027 421.78 188.547 421.78C188.147 421.78 187.847 422 187.647 422.44C187.487 422.88 187.347 423.54 187.227 424.42H185.847C185.927 423.46 185.967 422.34 185.967 421.06C186.007 419.78 186.027 418.12 186.027 416.08C186.067 414 186.087 411.38 186.087 408.22H187.467C187.627 410.86 188.067 413.34 188.787 415.66C189.547 417.94 190.687 419.78 192.207 421.18C193.767 422.58 195.827 423.28 198.387 423.28C199.787 423.28 201.027 423.04 202.107 422.56C203.227 422.04 204.127 421.28 204.807 420.28C205.487 419.28 205.827 418.04 205.827 416.56C205.827 414.88 205.427 413.42 204.627 412.18C203.867 410.94 202.807 409.78 201.447 408.7C200.127 407.62 198.587 406.52 196.827 405.4C194.947 404.16 193.187 402.92 191.547 401.68C189.907 400.44 188.587 399.02 187.587 397.42C186.627 395.82 186.147 393.92 186.147 391.72C186.147 389.2 186.767 387.14 188.007 385.54C189.287 383.9 190.947 382.7 192.987 381.94C195.067 381.14 197.267 380.74 199.587 380.74ZM231.206 383.14V392.98H238.286V394.18H231.206V418.42C231.206 419.62 231.426 420.48 231.866 421C232.306 421.48 232.966 421.72 233.846 421.72C234.566 421.72 235.286 421.46 236.006 420.94C236.726 420.38 237.366 419.44 237.926 418.12L238.946 418.66C238.306 420.46 237.326 421.94 236.006 423.1C234.726 424.26 232.966 424.84 230.726 424.84C229.406 424.84 228.246 424.66 227.246 424.3C226.246 423.98 225.406 423.48 224.726 422.8C223.846 421.92 223.266 420.84 222.986 419.56C222.706 418.24 222.566 416.54 222.566 414.46V394.18H217.526V392.98H222.566V385.06C224.246 385.06 225.786 384.92 227.186 384.64C228.626 384.32 229.966 383.82 231.206 383.14ZM269.46 392.98V394.18C268.7 394.38 267.98 394.86 267.3 395.62C266.62 396.34 265.96 397.58 265.32 399.34L256.86 423.1L254.64 427.3L241.56 397.6C240.88 396.04 240.2 395.1 239.52 394.78C238.88 394.42 238.32 394.24 237.84 394.24V392.98C239.16 393.1 240.52 393.2 241.92 393.28C243.36 393.32 244.74 393.34 246.06 393.34C247.7 393.34 249.2 393.3 250.56 393.22C251.92 393.14 253.2 393.06 254.4 392.98V394.24C253.6 394.24 252.84 394.3 252.12 394.42C251.44 394.5 250.96 394.78 250.68 395.26C250.44 395.7 250.56 396.48 251.04 397.6L258.6 415.84L258.06 416.2L262.5 403.78C263.26 401.62 263.58 399.86 263.46 398.5C263.34 397.1 262.9 396.06 262.14 395.38C261.38 394.66 260.34 394.26 259.02 394.18V392.98C259.66 393.02 260.32 393.06 261 393.1C261.68 393.1 262.36 393.12 263.04 393.16C263.72 393.16 264.32 393.16 264.84 393.16C265.64 393.16 266.48 393.14 267.36 393.1C268.24 393.06 268.94 393.02 269.46 392.98ZM256.86 423.1L254.58 429.52C254.18 430.52 253.76 431.36 253.32 432.04C252.92 432.76 252.46 433.34 251.94 433.78C251.38 434.26 250.66 434.62 249.78 434.86C248.9 435.14 247.88 435.28 246.72 435.28C245.76 435.28 244.76 435.12 243.72 434.8C242.72 434.48 241.88 433.96 241.2 433.24C240.52 432.52 240.18 431.6 240.18 430.48C240.18 429.24 240.62 428.24 241.5 427.48C242.38 426.76 243.54 426.4 244.98 426.4C246.3 426.4 247.38 426.72 248.22 427.36C249.06 428 249.48 428.94 249.48 430.18C249.48 430.98 249.22 431.74 248.7 432.46C248.22 433.18 247.48 433.72 246.48 434.08C246.68 434.12 246.92 434.14 247.2 434.14C247.48 434.14 247.7 434.14 247.86 434.14C249.06 434.14 250.12 433.76 251.04 433C251.96 432.24 252.72 431.04 253.32 429.4L255.42 423.22L256.86 423.1ZM281.715 377.02V418.42C281.715 420.1 281.995 421.24 282.555 421.84C283.155 422.44 284.155 422.74 285.555 422.74V424C284.795 423.96 283.655 423.92 282.135 423.88C280.615 423.8 279.075 423.76 277.515 423.76C275.955 423.76 274.375 423.8 272.775 423.88C271.215 423.92 270.035 423.96 269.235 424V422.74C270.635 422.74 271.615 422.44 272.175 421.84C272.775 421.24 273.075 420.1 273.075 418.42V384.22C273.075 382.42 272.795 381.1 272.235 380.26C271.715 379.38 270.715 378.94 269.235 378.94V377.68C270.515 377.8 271.755 377.86 272.955 377.86C274.595 377.86 276.155 377.8 277.635 377.68C279.115 377.52 280.475 377.3 281.715 377.02ZM303.002 392.14C306.522 392.14 309.282 393.18 311.282 395.26C313.282 397.34 314.282 400.74 314.282 405.46H294.542L294.422 404.32H306.722C306.762 402.36 306.642 400.56 306.362 398.92C306.082 397.24 305.642 395.9 305.042 394.9C304.442 393.9 303.642 393.4 302.642 393.4C301.242 393.4 300.042 394.28 299.042 396.04C298.082 397.8 297.502 400.72 297.302 404.8L297.482 405.16C297.442 405.64 297.402 406.14 297.362 406.66C297.362 407.18 297.362 407.72 297.362 408.28C297.362 411.04 297.742 413.28 298.502 415C299.302 416.72 300.302 417.98 301.502 418.78C302.702 419.54 303.922 419.92 305.162 419.92C306.002 419.92 306.862 419.8 307.742 419.56C308.662 419.28 309.582 418.8 310.502 418.12C311.422 417.4 312.282 416.4 313.082 415.12L314.162 415.48C313.682 417 312.922 418.48 311.882 419.92C310.842 421.36 309.522 422.54 307.922 423.46C306.322 424.38 304.402 424.84 302.162 424.84C299.442 424.84 297.042 424.26 294.962 423.1C292.882 421.94 291.242 420.18 290.042 417.82C288.882 415.46 288.302 412.46 288.302 408.82C288.302 405.1 288.922 402 290.162 399.52C291.442 397.04 293.182 395.2 295.382 394C297.622 392.76 300.162 392.14 303.002 392.14ZM324.176 415.6C325.176 415.6 326.036 415.78 326.756 416.14C327.476 416.5 328.036 417.02 328.436 417.7C328.876 418.26 329.196 419 329.396 419.92C329.636 420.84 329.756 421.76 329.756 422.68C329.756 424.68 329.236 426.52 328.196 428.2C327.196 429.92 325.616 431.28 323.456 432.28L322.916 431.2C324.036 430.72 325.036 429.98 325.916 428.98C326.796 427.98 327.316 426.96 327.476 425.92C327.676 425.04 327.676 424.2 327.476 423.4C326.596 424.36 325.436 424.84 323.996 424.84C322.596 424.84 321.456 424.44 320.576 423.64C319.696 422.8 319.256 421.66 319.256 420.22C319.256 418.82 319.716 417.7 320.636 416.86C321.596 416.02 322.776 415.6 324.176 415.6ZM381.403 381.46V382.66C380.523 383.02 379.623 383.74 378.703 384.82C377.783 385.86 376.763 387.46 375.643 389.62L364.303 412.06H361.483L347.443 386.08C346.723 384.72 346.063 383.82 345.463 383.38C344.903 382.94 344.403 382.72 343.963 382.72V381.46C345.043 381.58 346.143 381.66 347.263 381.7C348.423 381.74 349.683 381.76 351.043 381.76C352.803 381.76 354.703 381.74 356.743 381.7C358.783 381.62 360.643 381.54 362.323 381.46V382.72C361.323 382.72 360.423 382.8 359.623 382.96C358.823 383.12 358.263 383.42 357.943 383.86C357.623 384.26 357.703 384.92 358.183 385.84L367.663 404.08L365.803 406.48L371.983 394.06C373.463 391.18 374.243 388.92 374.323 387.28C374.443 385.64 374.043 384.48 373.123 383.8C372.243 383.08 370.983 382.7 369.343 382.66V381.46C370.703 381.5 371.983 381.54 373.183 381.58C374.383 381.62 375.603 381.64 376.843 381.64C377.723 381.64 378.543 381.62 379.303 381.58C380.103 381.54 380.803 381.5 381.403 381.46ZM368.563 402.58V417.64C368.563 419.08 368.663 420.16 368.863 420.88C369.103 421.6 369.543 422.08 370.183 422.32C370.823 422.56 371.783 422.72 373.063 422.8V424C371.983 423.92 370.583 423.88 368.863 423.88C367.183 423.84 365.503 423.82 363.823 423.82C361.943 423.82 360.163 423.84 358.483 423.88C356.803 423.88 355.483 423.92 354.523 424V422.8C355.803 422.72 356.763 422.56 357.403 422.32C358.043 422.08 358.463 421.6 358.663 420.88C358.903 420.16 359.023 419.08 359.023 417.64V405.34L364.243 409.06L368.563 402.58ZM393.822 392.14C396.742 392.14 399.302 392.68 401.502 393.76C403.702 394.84 405.422 396.58 406.662 398.98C407.902 401.38 408.522 404.56 408.522 408.52C408.522 412.48 407.902 415.66 406.662 418.06C405.422 420.42 403.702 422.14 401.502 423.22C399.302 424.3 396.742 424.84 393.822 424.84C390.982 424.84 388.442 424.3 386.202 423.22C384.002 422.14 382.262 420.42 380.982 418.06C379.742 415.66 379.122 412.48 379.122 408.52C379.122 404.56 379.742 401.38 380.982 398.98C382.262 396.58 384.002 394.84 386.202 393.76C388.442 392.68 390.982 392.14 393.822 392.14ZM393.822 393.34C392.222 393.34 390.882 394.54 389.802 396.94C388.722 399.3 388.182 403.16 388.182 408.52C388.182 413.88 388.722 417.74 389.802 420.1C390.882 422.46 392.222 423.64 393.822 423.64C395.462 423.64 396.802 422.46 397.842 420.1C398.922 417.74 399.462 413.88 399.462 408.52C399.462 403.16 398.922 399.3 397.842 396.94C396.802 394.54 395.462 393.34 393.822 393.34ZM442.148 392.32V417.46C442.148 419.26 442.428 420.6 442.988 421.48C443.548 422.32 444.548 422.74 445.988 422.74V424C444.748 423.88 443.508 423.82 442.268 423.82C440.588 423.82 439.028 423.88 437.588 424C436.148 424.12 434.788 424.34 433.508 424.66V419.26C432.548 421.26 431.208 422.7 429.488 423.58C427.808 424.42 425.928 424.84 423.848 424.84C422.168 424.84 420.808 424.62 419.768 424.18C418.728 423.74 417.908 423.18 417.308 422.5C416.628 421.74 416.148 420.74 415.868 419.5C415.588 418.26 415.448 416.66 415.448 414.7V399.52C415.448 397.72 415.168 396.4 414.608 395.56C414.088 394.68 413.088 394.24 411.608 394.24V392.98C412.888 393.1 414.128 393.16 415.328 393.16C417.008 393.16 418.568 393.1 420.008 392.98C421.488 392.82 422.848 392.6 424.088 392.32V417.16C424.088 418.16 424.168 419.04 424.328 419.8C424.528 420.56 424.888 421.16 425.408 421.6C425.928 422 426.688 422.2 427.688 422.2C428.768 422.2 429.728 421.9 430.568 421.3C431.448 420.7 432.148 419.88 432.668 418.84C433.228 417.76 433.508 416.56 433.508 415.24V399.52C433.508 397.72 433.228 396.4 432.668 395.56C432.148 394.68 431.148 394.24 429.668 394.24V392.98C430.948 393.1 432.188 393.16 433.388 393.16C435.068 393.16 436.628 393.1 438.068 392.98C439.548 392.82 440.908 392.6 442.148 392.32ZM469.295 392.14C470.575 392.14 471.615 392.42 472.415 392.98C473.215 393.5 473.795 394.18 474.155 395.02C474.555 395.86 474.755 396.74 474.755 397.66C474.755 399.14 474.315 400.36 473.435 401.32C472.595 402.24 471.475 402.7 470.075 402.7C468.675 402.7 467.575 402.36 466.775 401.68C466.015 400.96 465.635 400.02 465.635 398.86C465.635 397.74 465.875 396.82 466.355 396.1C466.875 395.34 467.515 394.7 468.275 394.18C467.715 394.02 467.155 394.04 466.595 394.24C465.835 394.36 465.115 394.68 464.435 395.2C463.755 395.68 463.175 396.3 462.695 397.06C462.215 397.78 461.835 398.58 461.555 399.46C461.275 400.3 461.135 401.12 461.135 401.92V417.82C461.135 419.74 461.595 421.04 462.515 421.72C463.475 422.4 464.895 422.74 466.775 422.74V424C465.855 423.96 464.515 423.92 462.755 423.88C460.995 423.8 459.155 423.76 457.235 423.76C455.635 423.76 454.015 423.8 452.375 423.88C450.735 423.92 449.495 423.96 448.655 424V422.74C450.055 422.74 451.035 422.44 451.595 421.84C452.195 421.24 452.495 420.1 452.495 418.42V399.52C452.495 397.72 452.215 396.4 451.655 395.56C451.135 394.68 450.135 394.24 448.655 394.24V392.98C449.935 393.1 451.175 393.16 452.375 393.16C454.055 393.16 455.615 393.1 457.055 392.98C458.535 392.82 459.895 392.6 461.135 392.32V397.9C461.615 396.82 462.255 395.84 463.055 394.96C463.855 394.08 464.775 393.4 465.815 392.92C466.855 392.4 468.015 392.14 469.295 392.14ZM504.978 380.74C507.338 380.74 509.158 381 510.438 381.52C511.718 382 512.818 382.52 513.738 383.08C514.218 383.36 514.598 383.58 514.878 383.74C515.198 383.86 515.498 383.92 515.778 383.92C516.178 383.92 516.458 383.7 516.618 383.26C516.818 382.82 516.978 382.16 517.098 381.28H518.478C518.438 382.04 518.378 382.96 518.298 384.04C518.258 385.08 518.217 386.46 518.178 388.18C518.178 389.9 518.178 392.16 518.178 394.96H516.798C516.638 392.88 516.158 390.86 515.358 388.9C514.558 386.94 513.418 385.34 511.938 384.1C510.498 382.82 508.718 382.18 506.598 382.18C504.678 382.18 503.098 382.72 501.858 383.8C500.618 384.88 499.998 386.38 499.998 388.3C499.998 389.9 500.398 391.28 501.198 392.44C501.998 393.56 503.158 394.66 504.678 395.74C506.238 396.82 508.118 398.12 510.318 399.64C512.238 400.88 513.958 402.12 515.478 403.36C516.998 404.6 518.218 406 519.138 407.56C520.058 409.12 520.518 410.98 520.518 413.14C520.518 415.78 519.818 417.96 518.418 419.68C517.058 421.4 515.258 422.7 513.018 423.58C510.778 424.42 508.318 424.84 505.638 424.84C503.158 424.84 501.178 424.6 499.698 424.12C498.218 423.64 496.978 423.14 495.978 422.62C495.098 422.06 494.418 421.78 493.938 421.78C493.538 421.78 493.238 422 493.038 422.44C492.878 422.88 492.738 423.54 492.618 424.42H491.238C491.318 423.46 491.358 422.34 491.358 421.06C491.398 419.78 491.418 418.12 491.418 416.08C491.458 414 491.478 411.38 491.478 408.22H492.858C493.018 410.86 493.458 413.34 494.178 415.66C494.938 417.94 496.078 419.78 497.598 421.18C499.158 422.58 501.218 423.28 503.777 423.28C505.178 423.28 506.418 423.04 507.498 422.56C508.618 422.04 509.518 421.28 510.198 420.28C510.878 419.28 511.218 418.04 511.218 416.56C511.218 414.88 510.818 413.42 510.018 412.18C509.258 410.94 508.198 409.78 506.838 408.7C505.518 407.62 503.978 406.52 502.218 405.4C500.338 404.16 498.578 402.92 496.938 401.68C495.298 400.44 493.978 399.02 492.978 397.42C492.018 395.82 491.538 393.92 491.538 391.72C491.538 389.2 492.158 387.14 493.398 385.54C494.678 383.9 496.338 382.7 498.378 381.94C500.458 381.14 502.658 380.74 504.978 380.74ZM536.657 392.32V428.92C536.657 430.8 537.137 432.04 538.097 432.64C539.057 433.28 540.377 433.6 542.057 433.6V434.86C541.017 434.82 539.577 434.76 537.737 434.68C535.937 434.64 534.017 434.62 531.977 434.62C530.497 434.62 529.037 434.64 527.597 434.68C526.197 434.76 525.137 434.82 524.417 434.86V433.6C525.737 433.6 526.657 433.32 527.177 432.76C527.737 432.2 528.017 431.12 528.017 429.52V399.52C528.017 397.72 527.737 396.4 527.177 395.56C526.617 394.68 525.617 394.24 524.177 394.24V392.98C525.457 393.1 526.697 393.16 527.897 393.16C529.537 393.16 531.097 393.1 532.577 392.98C534.057 392.82 535.417 392.6 536.657 392.32ZM545.957 392.14C547.997 392.14 549.817 392.7 551.417 393.82C553.017 394.9 554.297 396.56 555.257 398.8C556.217 401 556.697 403.76 556.697 407.08C556.697 410 556.357 412.56 555.677 414.76C555.037 416.96 554.097 418.82 552.857 420.34C551.657 421.82 550.197 422.94 548.477 423.7C546.797 424.46 544.897 424.84 542.777 424.84C541.217 424.84 539.797 424.56 538.517 424C537.237 423.48 536.257 422.72 535.577 421.72L536.177 420.94C536.577 421.66 537.137 422.22 537.857 422.62C538.617 423.02 539.477 423.22 540.437 423.22C542.237 423.22 543.657 422.62 544.697 421.42C545.737 420.18 546.477 418.46 546.917 416.26C547.397 414.02 547.637 411.36 547.637 408.28C547.637 404.84 547.417 402.14 546.977 400.18C546.537 398.22 545.937 396.82 545.177 395.98C544.417 395.14 543.497 394.72 542.417 394.72C540.977 394.72 539.657 395.28 538.457 396.4C537.297 397.52 536.637 399.12 536.477 401.2L536.177 399.1C536.897 396.82 538.117 395.1 539.837 393.94C541.597 392.74 543.637 392.14 545.957 392.14ZM568.673 424.42C566.873 424.42 565.373 424.08 564.173 423.4C562.973 422.72 562.093 421.82 561.533 420.7C560.973 419.54 560.693 418.28 560.693 416.92C560.693 415.2 561.073 413.8 561.833 412.72C562.633 411.64 563.653 410.76 564.893 410.08C566.133 409.4 567.433 408.84 568.793 408.4C570.193 407.96 571.513 407.54 572.753 407.14C574.033 406.7 575.053 406.2 575.813 405.64C576.613 405.04 577.013 404.28 577.013 403.36V398.68C577.013 397.64 576.833 396.72 576.473 395.92C576.153 395.08 575.633 394.44 574.913 394C574.233 393.56 573.333 393.34 572.213 393.34C571.413 393.34 570.613 393.46 569.813 393.7C569.013 393.9 568.353 394.26 567.833 394.78C568.953 395.18 569.813 395.8 570.413 396.64C571.053 397.44 571.373 398.36 571.373 399.4C571.373 400.76 570.893 401.84 569.933 402.64C569.013 403.44 567.913 403.84 566.633 403.84C565.193 403.84 564.093 403.4 563.333 402.52C562.613 401.6 562.253 400.5 562.253 399.22C562.253 398.06 562.533 397.1 563.093 396.34C563.693 395.58 564.513 394.86 565.553 394.18C566.673 393.54 568.013 393.04 569.573 392.68C571.173 392.32 572.893 392.14 574.733 392.14C576.573 392.14 578.233 392.34 579.713 392.74C581.193 393.1 582.433 393.78 583.433 394.78C584.353 395.7 584.953 396.84 585.233 398.2C585.513 399.52 585.653 401.2 585.653 403.24V419.56C585.653 420.56 585.753 421.26 585.953 421.66C586.153 422.02 586.493 422.2 586.973 422.2C587.333 422.2 587.673 422.1 587.993 421.9C588.353 421.7 588.733 421.46 589.133 421.18L589.733 422.2C588.893 422.92 587.913 423.48 586.793 423.88C585.713 424.24 584.493 424.42 583.133 424.42C581.653 424.42 580.473 424.22 579.593 423.82C578.713 423.38 578.073 422.8 577.673 422.08C577.313 421.36 577.133 420.52 577.133 419.56C576.173 421.08 575.013 422.28 573.653 423.16C572.293 424 570.633 424.42 568.673 424.42ZM572.933 420.58C573.733 420.58 574.453 420.4 575.093 420.04C575.773 419.64 576.413 419 577.013 418.12V405.82C576.653 406.42 576.153 406.96 575.513 407.44C574.873 407.92 574.193 408.42 573.473 408.94C572.753 409.42 572.053 409.96 571.373 410.56C570.733 411.16 570.213 411.9 569.813 412.78C569.413 413.66 569.213 414.72 569.213 415.96C569.213 417.52 569.553 418.68 570.233 419.44C570.913 420.2 571.813 420.58 572.933 420.58ZM607.048 392.14C608.608 392.14 610.028 392.32 611.308 392.68C612.628 393 613.708 393.42 614.548 393.94C615.588 394.58 616.388 395.38 616.948 396.34C617.548 397.26 617.848 398.34 617.848 399.58C617.848 400.98 617.408 402.14 616.528 403.06C615.648 403.94 614.508 404.38 613.108 404.38C611.708 404.38 610.588 403.98 609.748 403.18C608.908 402.38 608.488 401.3 608.488 399.94C608.488 398.66 608.888 397.6 609.688 396.76C610.488 395.88 611.408 395.3 612.448 395.02C612.128 394.62 611.648 394.28 611.008 394C610.368 393.72 609.648 393.58 608.848 393.58C607.608 393.58 606.508 393.94 605.548 394.66C604.628 395.38 603.848 396.38 603.208 397.66C602.568 398.94 602.068 400.44 601.708 402.16C601.388 403.88 601.228 405.76 601.228 407.8C601.228 410.88 601.608 413.3 602.368 415.06C603.168 416.82 604.168 418.06 605.368 418.78C606.608 419.5 607.888 419.86 609.208 419.86C609.968 419.86 610.788 419.74 611.668 419.5C612.588 419.26 613.508 418.78 614.428 418.06C615.388 417.34 616.268 416.32 617.068 415L618.088 415.36C617.648 416.84 616.928 418.32 615.928 419.8C614.928 421.28 613.628 422.5 612.028 423.46C610.428 424.38 608.468 424.84 606.148 424.84C603.548 424.84 601.188 424.28 599.068 423.16C596.988 422 595.308 420.24 594.028 417.88C592.788 415.48 592.168 412.4 592.168 408.64C592.168 405.04 592.808 402.02 594.088 399.58C595.408 397.1 597.188 395.24 599.428 394C601.668 392.76 604.208 392.14 607.048 392.14ZM636.693 392.14C640.213 392.14 642.973 393.18 644.973 395.26C646.973 397.34 647.973 400.74 647.973 405.46H628.233L628.113 404.32H640.413C640.453 402.36 640.333 400.56 640.053 398.92C639.773 397.24 639.333 395.9 638.733 394.9C638.133 393.9 637.333 393.4 636.333 393.4C634.933 393.4 633.733 394.28 632.733 396.04C631.773 397.8 631.193 400.72 630.993 404.8L631.173 405.16C631.133 405.64 631.093 406.14 631.053 406.66C631.053 407.18 631.053 407.72 631.053 408.28C631.053 411.04 631.433 413.28 632.193 415C632.993 416.72 633.993 417.98 635.193 418.78C636.393 419.54 637.613 419.92 638.853 419.92C639.693 419.92 640.553 419.8 641.433 419.56C642.353 419.28 643.273 418.8 644.193 418.12C645.113 417.4 645.973 416.4 646.773 415.12L647.853 415.48C647.373 417 646.613 418.48 645.573 419.92C644.533 421.36 643.213 422.54 641.613 423.46C640.013 424.38 638.093 424.84 635.853 424.84C633.133 424.84 630.733 424.26 628.653 423.1C626.573 421.94 624.933 420.18 623.733 417.82C622.573 415.46 621.993 412.46 621.993 408.82C621.993 405.1 622.613 402 623.853 399.52C625.133 397.04 626.873 395.2 629.073 394C631.313 392.76 633.853 392.14 636.693 392.14Z" fill="#EB487F"/>
<path d="M242.5 74.5L260.5 82.5V57.5C260.5 44.5 264 37 264 37C264 37 271.84 39.7825 280 46C290.5 54 298.5 63.5 298.5 63.5L305.5 48C305.5 48 297 40 285 34C273 28 259 27.5 259 27.5C259 27.5 250.734 39.4093 247.5 48C243.789 57.856 242.5 74.5 242.5 74.5Z" fill="url(#paint0_linear_60_20)"/>
<path d="M447 73.5L429 81.5V56.5C429 43.5 425.5 36 425.5 36C425.5 36 417.66 38.7825 409.5 45C399 53 391 62.5 391 62.5L384 47C384 47 392.5 39 404.5 33C416.5 27 430.5 26.5 430.5 26.5C430.5 26.5 438.766 38.4093 442 47C445.711 56.856 447 73.5 447 73.5Z" fill="url(#paint1_linear_60_20)"/>
<path d="M223 184.5L218 177.5C218 177.5 201.986 179.82 192 182.5C173.823 187.379 165.897 197.029 147.5 201C136.181 203.443 118 204 118 204C118 204 156.5 250.5 223 259C291.761 267.789 331.5 229 331.5 229C331.5 229 285 258 223 244.5C199.365 239.354 167.5 217 167.5 217C167.5 217 182.759 204.819 193.5 198.5C204.491 192.034 223 184.5 223 184.5Z" fill="url(#paint2_linear_60_20)"/>
<path d="M465.5 183.5L470.5 176.5C470.5 176.5 486.514 178.82 496.5 181.5C514.677 186.379 522.603 196.029 541 200C552.319 202.443 570.5 203 570.5 203C570.5 203 532 249.5 465.5 258C396.739 266.789 357 228 357 228C357 228 403.5 257 465.5 243.5C489.135 238.354 521 216 521 216C521 216 505.741 203.819 495 197.5C484.009 191.034 465.5 183.5 465.5 183.5Z" fill="url(#paint3_linear_60_20)"/>
<path d="M163.822 190.301L182.102 182.964L164.17 165.544C154.845 156.486 151.904 148.75 151.904 148.75C151.904 148.75 159.362 145.065 169.508 143.544C182.563 141.587 194.951 142.468 194.951 142.468L188.71 126.647C188.71 126.647 177.05 127.17 164.385 131.596C151.72 136.023 141.606 145.717 141.606 145.717C141.606 145.717 144.389 159.944 148.298 168.25C152.782 177.779 163.822 190.301 163.822 190.301Z" fill="url(#paint4_linear_60_20)"/>
<path d="M525.678 189.301L507.398 181.964C507.398 181.964 515.6 175.603 526.001 165.5C535.326 156.442 537.596 147.75 537.596 147.75C537.596 147.75 530.138 144.065 519.992 142.544C506.937 140.587 494.549 141.468 494.549 141.468L500.79 125.647C500.79 125.647 512.45 126.17 525.115 130.596C537.78 135.023 547.894 144.717 547.894 144.717C547.894 144.717 545.111 158.944 541.202 167.25C536.718 176.779 525.678 189.301 525.678 189.301Z" fill="url(#paint5_linear_60_20)"/>
<path d="M216.5 170C267.5 229 325 223 325 223C325 223 275.594 220.5 232 158.5C209.5 126.5 207 91.5 207 91.5C207 91.5 229.801 95.5893 243.5 101C264.31 109.219 292 131.5 292 131.5V107.5C292 107.5 271.5 90.5 243.5 79C215.5 67.5 183 67.5 183 67.5C183 67.5 185.5 134.137 216.5 170Z" fill="url(#paint6_linear_60_20)"/>
<path d="M473.5 168C422.5 227 365 221 365 221C365 221 414.406 218.5 458 156.5C480.5 124.5 483 89.5 483 89.5C483 89.5 460.199 93.5893 446.5 99C425.69 107.219 398 129.5 398 129.5V105.5C398 105.5 418.5 88.5 446.5 77C474.5 65.5 507 65.5 507 65.5C507 65.5 504.5 132.137 473.5 168Z" fill="url(#paint7_linear_60_20)"/>
<path d="M295.5 109.5C295.5 171.073 335.5 211 335.5 211C335.5 211 304.195 164 312.5 109.5C319.662 62.5 344.5 33.5 344.5 33.5C344.5 33.5 372.716 69.5714 376 117C380.5 182 351.5 212.5 351.5 212.5C351.5 212.5 391 183.5 393.5 112.5C395.666 51 345 0 345 0C345 0 295.5 44.5 295.5 109.5Z" fill="url(#paint8_linear_60_20)"/>
<defs>
<linearGradient id="paint0_linear_60_20" x1="274" y1="27.5" x2="274" y2="82.5" gradientUnits="userSpaceOnUse">
<stop stop-color="#EB487F"/>
<stop offset="1" stop-color="#300B15"/>
</linearGradient>
<linearGradient id="paint1_linear_60_20" x1="415.5" y1="26.5" x2="415.5" y2="81.5" gradientUnits="userSpaceOnUse">
<stop stop-color="#EB487F"/>
<stop offset="1" stop-color="#300B15"/>
</linearGradient>
<linearGradient id="paint2_linear_60_20" x1="224.75" y1="177.5" x2="224.75" y2="260.296" gradientUnits="userSpaceOnUse">
<stop stop-color="#EB487F"/>
<stop offset="1" stop-color="#300B15"/>
</linearGradient>
<linearGradient id="paint3_linear_60_20" x1="463.75" y1="176.5" x2="463.75" y2="259.296" gradientUnits="userSpaceOnUse">
<stop stop-color="#EB487F"/>
<stop offset="1" stop-color="#300B15"/>
</linearGradient>
<linearGradient id="paint4_linear_60_20" x1="152.058" y1="134.958" x2="191.509" y2="173.28" gradientUnits="userSpaceOnUse">
<stop stop-color="#EB487F"/>
<stop offset="1" stop-color="#300B15"/>
</linearGradient>
<linearGradient id="paint5_linear_60_20" x1="537.442" y1="133.958" x2="497.991" y2="172.28" gradientUnits="userSpaceOnUse">
<stop stop-color="#EB487F"/>
<stop offset="1" stop-color="#300B15"/>
</linearGradient>
<linearGradient id="paint6_linear_60_20" x1="254" y1="67.5" x2="254" y2="223.171" gradientUnits="userSpaceOnUse">
<stop stop-color="#EB487F"/>
<stop offset="1" stop-color="#300B15"/>
</linearGradient>
<linearGradient id="paint7_linear_60_20" x1="436" y1="65.5" x2="436" y2="221.171" gradientUnits="userSpaceOnUse">
<stop stop-color="#EB487F"/>
<stop offset="1" stop-color="#300B15"/>
</linearGradient>
<linearGradient id="paint8_linear_60_20" x1="344.534" y1="0" x2="344.534" y2="212.5" gradientUnits="userSpaceOnUse">
<stop stop-color="#EB487F"/>
<stop offset="1" stop-color="#300B15"/>
</linearGradient>
</defs>
</svg>
