<svg width="553" height="428" viewBox="0 0 553 428" fill="none" xmlns="http://www.w3.org/2000/svg">
<path d="M43.54 381.4C35.8867 381.4 28.56 380.327 21.56 378.18C14.56 375.94 9.00667 373.093 4.9 369.64L11.2 355.5C15.12 358.58 19.9733 361.147 25.76 363.2C31.5467 365.253 37.4733 366.28 43.54 366.28C48.6733 366.28 52.8267 365.72 56 364.6C59.1733 363.48 61.5067 361.987 63 360.12C64.4933 358.16 65.24 355.967 65.24 353.54C65.24 350.553 64.1667 348.173 62.02 346.4C59.8733 344.533 57.0733 343.087 53.62 342.06C50.26 340.94 46.48 339.913 42.28 338.98C38.1733 338.047 34.02 336.973 29.82 335.76C25.7133 334.453 21.9333 332.82 18.48 330.86C15.12 328.807 12.3667 326.1 10.22 322.74C8.07333 319.38 7 315.087 7 309.86C7 304.54 8.4 299.687 11.2 295.3C14.0933 290.82 18.4333 287.273 24.22 284.66C30.1 281.953 37.52 280.6 46.48 280.6C52.36 280.6 58.1933 281.347 63.98 282.84C69.7667 284.333 74.8067 286.48 79.1 289.28L73.36 303.42C68.9733 300.807 64.4467 298.893 59.78 297.68C55.1133 296.373 50.6333 295.72 46.34 295.72C41.3 295.72 37.1933 296.327 34.02 297.54C30.94 298.753 28.6533 300.34 27.16 302.3C25.76 304.26 25.06 306.5 25.06 309.02C25.06 312.007 26.0867 314.433 28.14 316.3C30.2867 318.073 33.04 319.473 36.4 320.5C39.8533 321.527 43.68 322.553 47.88 323.58C52.08 324.513 56.2333 325.587 60.34 326.8C64.54 328.013 68.32 329.6 71.68 331.56C75.1333 333.52 77.8867 336.18 79.94 339.54C82.0867 342.9 83.16 347.147 83.16 352.28C83.16 357.507 81.7133 362.36 78.82 366.84C76.02 371.227 71.68 374.773 65.8 377.48C59.92 380.093 52.5 381.4 43.54 381.4ZM87.3469 380L131.447 282H149.367L193.607 380H174.567L136.627 291.66H143.907L106.107 380H87.3469ZM107.647 357.32L112.547 343.04H165.467L170.367 357.32H107.647ZM206.07 380V282H221.05L282.51 357.46H275.09V282H293.15V380H278.17L216.71 304.54H224.13V380H206.07ZM349.79 381.4C342.137 381.4 334.81 380.327 327.81 378.18C320.81 375.94 315.257 373.093 311.15 369.64L317.45 355.5C321.37 358.58 326.223 361.147 332.01 363.2C337.797 365.253 343.723 366.28 349.79 366.28C354.923 366.28 359.077 365.72 362.25 364.6C365.423 363.48 367.757 361.987 369.25 360.12C370.743 358.16 371.49 355.967 371.49 353.54C371.49 350.553 370.417 348.173 368.27 346.4C366.123 344.533 363.323 343.087 359.87 342.06C356.51 340.94 352.73 339.913 348.53 338.98C344.423 338.047 340.27 336.973 336.07 335.76C331.963 334.453 328.183 332.82 324.73 330.86C321.37 328.807 318.617 326.1 316.47 322.74C314.323 319.38 313.25 315.087 313.25 309.86C313.25 304.54 314.65 299.687 317.45 295.3C320.343 290.82 324.683 287.273 330.47 284.66C336.35 281.953 343.77 280.6 352.73 280.6C358.61 280.6 364.443 281.347 370.23 282.84C376.017 284.333 381.057 286.48 385.35 289.28L379.61 303.42C375.223 300.807 370.697 298.893 366.03 297.68C361.363 296.373 356.883 295.72 352.59 295.72C347.55 295.72 343.443 296.327 340.27 297.54C337.19 298.753 334.903 300.34 333.41 302.3C332.01 304.26 331.31 306.5 331.31 309.02C331.31 312.007 332.337 314.433 334.39 316.3C336.537 318.073 339.29 319.473 342.65 320.5C346.103 321.527 349.93 322.553 354.13 323.58C358.33 324.513 362.483 325.587 366.59 326.8C370.79 328.013 374.57 329.6 377.93 331.56C381.383 333.52 384.137 336.18 386.19 339.54C388.337 342.9 389.41 347.147 389.41 352.28C389.41 357.507 387.963 362.36 385.07 366.84C382.27 371.227 377.93 374.773 372.05 377.48C366.17 380.093 358.75 381.4 349.79 381.4ZM476.337 282H494.537V380H476.337V282ZM425.657 380H407.457V282H425.657V380ZM477.737 338H424.117V322.46H477.737V338ZM520.797 380V282H538.997V380H520.797Z" fill="#0077CC"/>
<path d="M174.5 74.5L192.5 82.5V57.5C192.5 44.5 196 37 196 37C196 37 203.84 39.7825 212 46C222.5 54 230.5 63.5 230.5 63.5L237.5 48C237.5 48 229 40 217 34C205 28 191 27.5 191 27.5C191 27.5 182.734 39.4093 179.5 48C175.789 57.856 174.5 74.5 174.5 74.5Z" fill="#0077CC"/>
<path d="M379 73.5L361 81.5V56.5C361 43.5 357.5 36 357.5 36C357.5 36 349.66 38.7825 341.5 45C331 53 323 62.5 323 62.5L316 47C316 47 324.5 39 336.5 33C348.5 27 362.5 26.5 362.5 26.5C362.5 26.5 370.766 38.4093 374 47C377.711 56.856 379 73.5 379 73.5Z" fill="#0077CC"/>
<path d="M155 184.5L150 177.5C150 177.5 133.986 179.82 124 182.5C105.823 187.379 97.8966 197.029 79.5 201C68.1808 203.443 50 204 50 204C50 204 88.5 250.5 155 259C223.761 267.789 263.5 229 263.5 229C263.5 229 217 258 155 244.5C131.365 239.354 99.5 217 99.5 217C99.5 217 114.759 204.819 125.5 198.5C136.491 192.034 155 184.5 155 184.5Z" fill="#0077CC"/>
<path d="M397.5 183.5L402.5 176.5C402.5 176.5 418.514 178.82 428.5 181.5C446.677 186.379 454.603 196.029 473 200C484.319 202.443 502.5 203 502.5 203C502.5 203 464 249.5 397.5 258C328.739 266.789 289 228 289 228C289 228 335.5 257 397.5 243.5C421.135 238.354 453 216 453 216C453 216 437.741 203.819 427 197.5C416.009 191.034 397.5 183.5 397.5 183.5Z" fill="#0077CC"/>
<path d="M95.8222 190.301L114.102 182.964L96.1701 165.544C86.8452 156.486 83.9042 148.75 83.9042 148.75C83.9042 148.75 91.3625 145.065 101.508 143.544C114.563 141.587 126.951 142.468 126.951 142.468L120.71 126.647C120.71 126.647 109.05 127.17 96.3845 131.596C83.7195 136.023 73.6061 145.717 73.6061 145.717C73.6061 145.717 76.3894 159.944 80.2978 168.25C84.7818 177.779 95.8222 190.301 95.8222 190.301Z" fill="#0077CC"/>
<path d="M457.678 189.301L439.398 181.964C439.398 181.964 447.6 175.603 458.001 165.5C467.326 156.442 469.596 147.75 469.596 147.75C469.596 147.75 462.138 144.065 451.992 142.544C438.937 140.587 426.549 141.468 426.549 141.468L432.79 125.647C432.79 125.647 444.45 126.17 457.115 130.596C469.78 135.023 479.894 144.717 479.894 144.717C479.894 144.717 477.111 158.944 473.202 167.25C468.718 176.779 457.678 189.301 457.678 189.301Z" fill="#0077CC"/>
<path d="M148.5 170C199.5 229 257 223 257 223C257 223 207.594 220.5 164 158.5C141.5 126.5 139 91.5 139 91.5C139 91.5 161.801 95.5893 175.5 101C196.31 109.219 224 131.5 224 131.5V107.5C224 107.5 203.5 90.5 175.5 79C147.5 67.5 115 67.5 115 67.5C115 67.5 117.5 134.137 148.5 170Z" fill="#0077CC"/>
<path d="M405.5 168C354.5 227 297 221 297 221C297 221 346.406 218.5 390 156.5C412.5 124.5 415 89.5 415 89.5C415 89.5 392.199 93.5893 378.5 99C357.69 107.219 330 129.5 330 129.5V105.5C330 105.5 350.5 88.5 378.5 77C406.5 65.5 439 65.5 439 65.5C439 65.5 436.5 132.137 405.5 168Z" fill="#0077CC"/>
<path d="M227.5 109.5C227.5 171.073 267.5 211 267.5 211C267.5 211 236.195 164 244.5 109.5C251.662 62.5 276.5 33.5 276.5 33.5C276.5 33.5 304.716 69.5714 308 117C312.5 182 283.5 212.5 283.5 212.5C283.5 212.5 323 183.5 325.5 112.5C327.666 51 277 0 277 0C277 0 227.5 44.5 227.5 109.5Z" fill="#0077CC"/>
</svg>
